<?xml version="1.0" standalone="no"?>
<!DOCTYPE svg PUBLIC "-//W3C//DTD SVG 1.1//EN" "http://www.w3.org/Graphics/SVG/1.1/DTD/svg11.dtd" >
<svg xmlns="http://www.w3.org/2000/svg">
<metadata></metadata>
<defs>
<font id="arnhem_normal_scregular" horiz-adv-x="1081" >
<font-face units-per-em="2048" ascent="1536" descent="-512" />
<missing-glyph horiz-adv-x="409" />
<glyph horiz-adv-x="2048" />
<glyph horiz-adv-x="2048" />
<glyph unicode="&#xd;" horiz-adv-x="2048" />
<glyph unicode=" "  horiz-adv-x="409" />
<glyph unicode="&#x09;" horiz-adv-x="409" />
<glyph unicode="&#xa0;" horiz-adv-x="409" />
<glyph unicode="!" horiz-adv-x="546" d="M145 991q7 5 18.5 13.5t45 22t63.5 13.5q35 0 66.5 -12t45.5 -24l15 -13q-27 -105 -62.5 -317.5t-35.5 -311.5h-57q0 99 -36 311t-63 318zM150 98q0 54 34.5 85.5t91.5 31.5q56 0 88.5 -31.5t32.5 -85.5t-33 -86t-88 -32q-57 0 -91.5 32t-34.5 86z" />
<glyph unicode="&#x22;" horiz-adv-x="806" d="M111 1255q5 6 14.5 14t39.5 22t60 14q35 0 66 -12.5t45 -24.5l14 -13q-29 -66 -58.5 -174.5t-37.5 -169.5h-47q-5 56 -35 165t-61 179zM457 1255q5 6 14.5 14t39.5 22t60 14q35 0 66 -12.5t45 -24.5l14 -13q-29 -66 -58.5 -174.5t-37.5 -169.5h-47q-5 56 -35 165t-61 179 z" />
<glyph unicode="#" horiz-adv-x="1525" d="M135 264l31 88h283l108 320h-317l30 88h318l162 487l100 -30l-150 -457h304l159 485l101 -31l-152 -454h303l-31 -88h-303l-106 -320h352l-31 -88h-352l-172 -514l-100 29l162 485h-304l-170 -514l-104 29l162 485h-283zM561 352h303l107 320h-299z" />
<glyph unicode="$" d="M156 356h67q23 -140 70 -217q39 -43 85 -67.5t118 -24.5h22v399l-82 31q-260 97 -260 289q0 115 98 189t244 83v136h55v-134q123 -3 226 -55l39 47h43l12 -321h-66q-22 107 -79 186q-38 36 -76.5 55.5t-98.5 22.5v-352l113 -48q48 -20 85 -42t77.5 -56.5t63 -83.5 t22.5 -108q0 -133 -98.5 -212t-262.5 -91v-168h-55v166h-2q-168 0 -276 49l-31 -49h-45q2 68 1.5 94.5t-4.5 137t-5 144.5zM377 815q0 -63 31.5 -98.5t109.5 -69.5v326q-63 -9 -102 -50.5t-39 -107.5zM573 55q73 17 111.5 64t38.5 117q0 74 -37.5 115.5t-112.5 72.5v-369z " />
<glyph unicode="%" horiz-adv-x="1476" d="M39 961q0 139 94.5 234t228.5 95t229 -95t95 -234t-96 -235.5t-228 -96.5q-133 0 -228 96t-95 236zM158 956q0 -106 57.5 -174.5t146.5 -68.5q90 0 146.5 67.5t56.5 175.5q0 110 -56 178t-147 68q-90 0 -147 -68t-57 -178zM285 33l845 1263l72 -61l-840 -1260zM793 311 q0 139 94.5 234.5t228.5 95.5t229 -95.5t95 -234.5t-96 -235t-228 -96q-133 0 -228 95.5t-95 235.5zM911 307q0 -106 58 -175t147 -69q90 0 146.5 68t56.5 176q0 110 -56 178t-147 68q-90 0 -147.5 -68t-57.5 -178z" />
<glyph unicode="&#x26;" horiz-adv-x="1093" d="M47 252q0 54 25 101t66.5 79.5t75.5 52t73 35.5l-86 88q-86 89 -86 183q0 66 29.5 116.5t78 78t101.5 41t108 13.5q140 0 217.5 -64t77.5 -155q0 -49 -22 -93.5t-60.5 -78.5t-79 -59.5t-88.5 -46.5l293 -283q53 93 53 240q0 14 -7 18.5t-40 11.5l-59 13v43h325v-43 l-92 -19q-20 -3 -26 -9.5t-6 -27.5q0 -86 -27 -160t-68 -118l103 -98q21 -25 67 -49.5t84 -32.5v-29q-147 -9 -213.5 5.5t-130.5 70.5l-20 18q-145 -114 -320 -114q-167 0 -256.5 76.5t-89.5 195.5zM227 291q0 -102 63.5 -156.5t164.5 -54.5q120 0 204 70l-321 321 q-111 -78 -111 -180zM283 807q0 -68 77 -148l72 -73q68 41 103.5 96t35.5 139q0 148 -145 148q-65 0 -104 -40t-39 -122z" />
<glyph unicode="'" horiz-adv-x="473" d="M117 1255q5 6 14.5 14t39.5 22t60 14q35 0 66 -12.5t45 -24.5l14 -13q-29 -66 -58.5 -174.5t-37.5 -169.5h-47q-5 56 -35 165t-61 179z" />
<glyph unicode="(" horiz-adv-x="634" d="M86 453v182q0 178 38.5 325.5t104.5 245t153.5 150.5t186.5 53v-59q-144 0 -231.5 -192.5t-87.5 -526.5v-160q0 -336 87.5 -529.5t231.5 -193.5v-59q-99 0 -186 51.5t-153.5 146.5t-105 241.5t-38.5 324.5z" />
<glyph unicode=")" horiz-adv-x="634" d="M63 -252q145 0 233.5 202t88.5 539v127q0 336 -88 535t-234 199v59q99 0 187 -53t154.5 -149.5t105.5 -244t39 -325.5v-148q0 -179 -39 -330.5t-105 -253.5t-154.5 -159t-187.5 -57v59z" />
<glyph unicode="*" horiz-adv-x="960" d="M82 831l6 35l291 -4l-53 287l34 14l144 -258l219 193l29 -23l-148 -252l275 -94l-9 -37l-288 4l53 -286l-35 -13l-143 256l-221 -192l-27 22l147 252z" />
<glyph unicode="+" d="M72 446v97h409v467h115v-467h410v-97h-410v-514h-115v514h-409z" />
<glyph unicode="," horiz-adv-x="542" d="M123 -377q64 58 112 152t48 200q-66 0 -106 38.5t-40 101.5q0 59 42 100t100 41q67 0 109 -47t42 -139q0 -79 -21.5 -155.5t-54.5 -133t-64.5 -95.5t-60.5 -63h-106z" />
<glyph unicode="-" horiz-adv-x="581" d="M57 518v144h467v-144h-467z" />
<glyph unicode="." horiz-adv-x="542" d="M135 121q0 57 40.5 98t100.5 41q58 0 99 -41t41 -98q0 -59 -41 -100t-99 -41q-60 0 -100.5 41t-40.5 100z" />
<glyph unicode="/" horiz-adv-x="614" d="M31 -154l448 1217h105l-449 -1217h-104z" />
<glyph unicode="0" d="M88 508q0 237 120.5 384.5t334.5 147.5q217 0 334.5 -140t117.5 -390q0 -238 -118.5 -384t-333.5 -146q-216 0 -335.5 140.5t-119.5 387.5zM319 510q0 -104 11 -184t36 -142.5t69.5 -95.5t107.5 -33q67 0 112 32t68.5 96t33 141.5t9.5 185.5q0 61 -3 110.5t-11 104 t-24.5 95.5t-40 75t-60.5 52t-84 18q-55 0 -95.5 -22.5t-65 -61t-39 -98t-19.5 -124t-5 -149.5z" />
<glyph unicode="1" d="M150 834q40 15 102 39t187 79t169 88h66v-901q0 -31 12 -42.5t47 -14.5l199 -21v-61h-750v61l219 23q36 3 47 14t11 41v715h-25l-268 -82z" />
<glyph unicode="2" d="M113 0v47l319 281q45 39 68 60t63.5 65.5t61.5 80.5t38 88.5t17 106.5q0 101 -59.5 150t-163.5 49q-116 0 -185 -53t-69 -154q0 -52 2 -68h-53q-9 35 -9 86q0 57 22.5 109.5t67 96t119 69.5t168.5 26q173 0 276 -75t103 -211q0 -49 -19 -97t-45 -84.5t-70.5 -79 t-78 -68.5t-85 -65.5t-75.5 -58.5l-182 -147h430q40 0 57 22l125 162h50q-18 -53 -39 -134t-34.5 -141.5t-14.5 -62.5h-805z" />
<glyph unicode="3" d="M123 143q0 105 106 105q49 0 78.5 -29.5t34.5 -75.5l6 -63q52 -33 117 -33q135 0 199.5 55t64.5 185q0 96 -72 146t-190 50q-62 0 -102 -16v78q116 13 186 45q35 16 55.5 28t45.5 35t38 57t15 81q2 41 -14.5 70t-47 45t-65.5 23t-76 7q-70 0 -126.5 -19t-94 -64.5 t-37.5 -111.5h-54q0 121 98 210t259 89q164 0 259 -61t95 -172q0 -86 -72.5 -151.5t-185.5 -94.5q307 -51 307 -270q0 -148 -130.5 -229.5t-354.5 -81.5q-54 0 -106.5 6.5t-109 23t-91.5 51t-35 82.5z" />
<glyph unicode="4" d="M47 252v55l537 686q36 3 101.5 19.5t84.5 27.5h37v-702h164v-86h-164v-143q0 -16 6.5 -22t28.5 -9l110 -17v-61h-546v61l149 17q23 3 30 9t7 24v141h-545zM168 338h424v557z" />
<glyph unicode="5" d="M143 141q0 107 107 107q99 0 112 -109l7 -59q55 -33 102 -33q131 0 195.5 74t64.5 190q0 127 -73.5 190.5t-202.5 63.5q-117 0 -205 -61h-43q9 49 18 117.5t18 188t7 220.5h676l-62 -158h-536q0 -44 -7 -112t-15 -114l-7 -46q103 47 217 47q220 0 328 -91.5t108 -229.5 q0 -145 -136.5 -245.5t-346.5 -100.5q-49 0 -100.5 8t-104.5 24.5t-87 50t-34 78.5z" />
<glyph unicode="6" d="M104 449q0 145 49.5 260.5t134 186t191 107.5t226.5 37q128 0 235 -49v-67q-76 32 -201 32q-164 0 -275.5 -98.5t-139.5 -312.5q51 53 126 81.5t152 28.5q174 0 283.5 -86t109.5 -237t-120 -251.5t-322 -100.5q-69 0 -130.5 13.5t-121 47t-102.5 85.5t-69 134.5 t-26 188.5zM315 432q0 -383 252 -383q106 0 162.5 73t56.5 193q0 119 -62.5 181.5t-178.5 62.5q-132 0 -228 -96q0 -6 -1 -15.5t-1 -15.5z" />
<glyph unicode="7" d="M113 872l28 158h850v-26l-571 -1004h-189l596 872h-714z" />
<glyph unicode="8" d="M123 231q0 188 278 269q-97 37 -139 67q-102 74 -102 209q0 79 55 140t146.5 92.5t203.5 31.5q106 0 184.5 -21t122.5 -57.5t65 -80t21 -93.5q0 -41 -21 -78t-51.5 -62.5t-69.5 -47t-70 -33t-58 -18.5q121 -36 198 -106.5t77 -178.5q0 -68 -38 -124t-100 -90t-136.5 -52 t-151.5 -18q-193 0 -303.5 64.5t-110.5 186.5zM319 240q0 -94 61 -145.5t157 -51.5q98 0 157.5 51t59.5 146q0 41 -17 75.5t-44 58.5t-69 44t-81 33t-92 26q-73 -43 -102.5 -93t-29.5 -144zM358 791q0 -30 8 -56t18.5 -44t33.5 -35.5t39.5 -27.5t50.5 -23t53 -19t60 -19 q77 41 114 90t37 123q0 92 -53 144.5t-160 52.5q-90 0 -145.5 -46.5t-55.5 -139.5z" />
<glyph unicode="9" d="M88 690q0 156 118.5 253t315.5 97q228 0 345.5 -125.5t117.5 -341.5q0 -126 -42 -233.5t-122.5 -188t-206.5 -126t-284 -45.5q-49 0 -106.5 12t-88.5 26v68q65 -23 170 -23q207 0 320.5 109.5t140.5 292.5q-108 -105 -272 -105q-176 0 -291 89t-115 241zM293 700 q0 -111 67.5 -177t198.5 -66q127 0 213 80v30q0 62 -4.5 112t-20 107.5t-41.5 96t-73.5 64.5t-112.5 26q-110 0 -168.5 -73t-58.5 -200z" />
<glyph unicode=":" horiz-adv-x="542" d="M135 121q0 57 40.5 98t100.5 41q58 0 99 -41t41 -98q0 -59 -41 -100t-99 -41q-60 0 -100.5 41t-40.5 100zM135 741q0 59 40.5 99.5t100.5 40.5q58 0 99 -40.5t41 -99.5q0 -57 -41 -98t-99 -41q-60 0 -100.5 41t-40.5 98z" />
<glyph unicode=";" horiz-adv-x="542" d="M123 -377q64 58 112 152t48 200q-66 0 -106 38.5t-40 101.5q0 59 42 100t100 41q67 0 109 -47t42 -139q0 -79 -21.5 -155.5t-54.5 -133t-64.5 -95.5t-60.5 -63h-106zM135 741q0 58 41 99t100 41q58 0 99 -41.5t41 -98.5q0 -59 -41 -100t-99 -41q-60 0 -100.5 41 t-40.5 100z" />
<glyph unicode="&#x3c;" d="M29 494l929 438l41 -84l-641 -313l-120 -46l118 -43l643 -307l-41 -82z" />
<glyph unicode="=" d="M72 244v98h934v-98h-934zM72 645v98h934v-98h-934z" />
<glyph unicode="&#x3e;" d="M66 139l645 310l116 40l-122 46l-639 313l40 84l930 -438l-930 -439z" />
<glyph unicode="?" horiz-adv-x="866" d="M106 827q0 26 9 47.5t27 38.5t32.5 27.5t38.5 24.5l39 22q92 53 221 53q152 0 238 -62t86 -187q0 -32 -8.5 -61.5t-28 -55.5t-37 -45.5t-49 -42t-50 -35t-55 -34.5t-49.5 -30q-61 -39 -67 -43v-131h-138q1 40 14.5 76t36 64t42.5 47.5t45 40.5q3 2 5.5 4t4.5 4 q66 54 94.5 114.5t28.5 137.5q0 70 -53 119t-134 49q-37 0 -78.5 -13t-68.5 -32q17 -19 24.5 -30t14 -32t6.5 -49q0 -34 -28.5 -60t-69.5 -26q-38 0 -65.5 28.5t-27.5 71.5zM262 98q0 54 35 85.5t92 31.5q56 0 88.5 -31.5t32.5 -85.5t-33 -86t-88 -32q-57 0 -92 32t-35 86z " />
<glyph unicode="@" horiz-adv-x="1841" d="M25 496q0 190 69.5 352.5t189 274.5t283 175.5t348.5 63.5q192 0 357 -59.5t286 -168.5t190 -273.5t69 -364.5q0 -163 -45.5 -295.5t-140 -215.5t-222.5 -83q-73 0 -131 42t-88 111l-103 240h-395l-65 -170q-7 -25 -0.5 -35.5t28.5 -15.5l95 -19v-55h-381v55l94 21 q19 4 29 15t20 34l381 915h111l378 -917q17 -39 29 -61.5t34.5 -42t49.5 -19.5q55 0 96.5 57t62 142t30.5 161t10 136q0 223 -97 402t-275.5 281.5t-406.5 102.5q-226 0 -400.5 -103t-267.5 -281t-93 -402q0 -165 50 -310t142 -254.5t232 -173t309 -63.5q119 0 226.5 26 t178.5 68l31 -55q-181 -117 -436 -117q-260 0 -457 112.5t-301 311.5t-104 455zM719 377h336l-172 428z" />
<glyph unicode="A" horiz-adv-x="1236" d="M-29 0v59l92 23q39 9 52 47l442 1174h115l440 -1176q12 -36 51 -47l72 -21v-59h-516v59l108 23q27 6 34 17t-1 36l-88 238h-453l-83 -246q-7 -22 0 -31t28 -14l107 -23v-59h-400zM348 463h391l-200 549z" />
<glyph unicode="B" horiz-adv-x="1282" d="M78 0v59l112 23q37 8 46.5 15t9.5 28v1018q0 22 -8.5 28.5t-44.5 14.5l-115 24v60h610q210 0 325 -82t115 -232q0 -103 -78.5 -180.5t-189.5 -111.5q143 -31 233.5 -115t90.5 -207q0 -76 -27 -136t-71.5 -98t-106 -63t-124.5 -35t-132 -10h-645zM483 86q62 -16 129 -16 h52q276 0 276 278q0 131 -95 202t-251 71h-111v-535zM483 688h119q151 0 224 61.5t73 202.5q0 131 -68.5 189.5t-199.5 58.5h-35q-63 0 -113 -16v-496z" />
<glyph unicode="C" horiz-adv-x="1363" d="M82 637q0 192 92.5 344.5t254.5 237t364 84.5q198 0 340 -64l38 51h43l23 -440h-55q-16 76 -45.5 163.5t-57.5 125.5q-106 98 -280 98q-99 0 -177.5 -33.5t-129.5 -89.5t-85 -133t-48.5 -159t-14.5 -173q0 -267 120 -434.5t306 -167.5q80 0 152.5 25.5t121.5 60.5 q31 31 74 127.5t64 171.5h57l-70 -381q-67 -31 -177.5 -53.5t-229.5 -22.5q-130 0 -241 35.5t-190.5 97.5t-136.5 145.5t-84.5 181t-27.5 202.5z" />
<glyph unicode="D" horiz-adv-x="1464" d="M78 0v59l112 25q38 8 47 14t9 27v1018q0 21 -9 28.5t-44 14.5l-115 24v60h616q143 0 269 -41.5t221.5 -118t151 -195t55.5 -264.5q0 -180 -78.5 -327.5t-227.5 -235.5t-342 -88h-665zM483 90q64 -22 164 -22h41q204 0 327.5 154.5t123.5 420.5q0 91 -14 170t-49 152.5 t-88.5 126t-137.5 83.5t-191 31h-43q-75 0 -133 -26v-1090z" />
<glyph unicode="E" horiz-adv-x="1241" d="M78 0v59l112 25q38 8 47 14t9 27v1018q0 22 -8.5 28.5t-44.5 14.5l-115 24v60h815q96 0 164 22l37 -407h-56q-48 180 -102 250q-37 24 -119.5 42.5t-173.5 18.5h-18q-77 0 -142 -12v-482h228q41 25 74.5 83t41.5 108h41v-469h-41q-29 137 -116 197h-228v-535 q105 -14 172 -14h47q68 0 146.5 16.5t118.5 46.5q31 37 67.5 115t57.5 149h55l-60 -399h-1009z" />
<glyph unicode="F" horiz-adv-x="1142" d="M78 1210v60h758q146 0 217 22l37 -407h-56q-42 173 -102 250q-37 24 -114.5 42.5t-158.5 18.5h-20q-67 0 -141 -18v-498h243q33 25 65 83t38 105h47v-483h-47q-13 56 -43.5 122.5t-59.5 92.5h-243v-471q0 -5 0.5 -8.5t0.5 -6.5t2 -5t2.5 -4t4 -3.5t5 -2t6.5 -1.5t8 -2 t10.5 -2t11.5 -2l166 -33v-59h-621v59l113 25q38 8 46.5 14t8.5 27v1018q0 21 -8.5 27t-44.5 14z" />
<glyph unicode="G" horiz-adv-x="1425" d="M74 659q0 138 54 257t149.5 204.5t234 134t301.5 48.5q209 0 348 -68l39 53h43l23 -442h-56q-14 72 -46 163t-60 130q-103 94 -297 94q-148 0 -256 -73.5t-161.5 -199.5t-53.5 -288q0 -290 124 -457.5t312 -167.5q73 0 142.5 23t105.5 59v363q0 22 -8 30t-39 15l-139 36 v58h503v-49l-37 -15q-23 -12 -31 -17.5t-13 -16.5t-5 -31v-377l11 -39q-77 -42 -224.5 -74t-304.5 -32q-121 0 -226.5 34.5t-184 97t-135 147t-85 186.5t-28.5 214z" />
<glyph unicode="H" horiz-adv-x="1603" d="M78 0v59l112 25q38 8 47 14t9 27v1018q0 21 -8.5 27t-44.5 14l-115 26v60h561v-60l-100 -24q-38 -10 -47 -16t-9 -27v-436h637v436q0 22 -9 30t-44 15l-102 22v60h561v-60l-113 -24q-36 -8 -45.5 -15t-9.5 -28v-1018q0 -21 8.5 -27t44.5 -14l115 -27v-57h-561v57l100 25 q38 9 46.5 15.5t8.5 27.5v485h-637v-485q0 -21 9 -28t45 -15l102 -23v-59h-561z" />
<glyph unicode="I" horiz-adv-x="729" d="M78 0v59l112 25q38 8 47 14t9 27v1018q0 21 -8.5 27t-44.5 14l-115 26v60h573v-60l-112 -26q-37 -8 -46.5 -14t-9.5 -27v-1018q0 -21 8.5 -27t45.5 -14l114 -25v-59h-573z" />
<glyph unicode="J" horiz-adv-x="729" d="M-123 -281q0 50 35 83.5t82 33.5q69 0 96 -60q12 -27 12 -57q0 -34 -16 -71q33 5 58 19t50 46.5t38.5 96.5t13.5 157v1176q0 22 -9 28.5t-44 12.5l-127 24v62h585v-62l-112 -24q-37 -8 -46.5 -14t-9.5 -27v-1120q0 -94 -24 -169t-64 -124.5t-95 -82.5t-115 -47t-126 -14 q-74 0 -128 34t-54 99z" />
<glyph unicode="K" horiz-adv-x="1357" d="M78 0v59l112 25q38 8 47 14t9 27v1018q0 21 -8.5 27t-44.5 14l-115 26v60h573v-60l-112 -24q-36 -8 -46 -15t-10 -28v-1018q0 -21 8.5 -27t45.5 -14l114 -25v-59h-573zM481 643v14q53 24 70 43l414 437q17 17 17 29q0 19 -40 26l-88 18v60h453v-60l-76 -16 q-70 -16 -123 -66l-397 -389l299 -407q69 -94 133.5 -158.5t105.5 -87.5l94 -27v-59h-346q-83 66 -227 270l-246 353q-5 8 -14.5 12.5t-19.5 6.5z" />
<glyph unicode="L" horiz-adv-x="1165" d="M78 1210v60h596v-60l-137 -26q-34 -6 -44 -13.5t-10 -27.5v-975q0 -26 11 -45t26 -28.5t39 -15t41 -6.5t41 -1h23q73 0 148 18t114 45q61 76 110 199l41 106h56l-95 -440h-958v59l110 25q38 8 47 14t9 27v1018q0 21 -8.5 27t-44.5 14z" />
<glyph unicode="M" horiz-adv-x="1832" d="M55 0v59l140 21q36 5 43 57q1 11 3.5 44.5t4.5 72t2 80.5v807q0 6 -0.5 10.5t-2 8t-2 6t-4.5 5t-6 3.5t-8.5 3t-10 2.5t-13 3t-15.5 3.5l-106 24v62h389l444 -928l459 926h381v-58l-115 -28q-32 -8 -40.5 -14.5t-8.5 -26.5v-1018q0 -21 8.5 -27t44.5 -14l113 -25v-59 h-557v59l96 23q36 8 46 15t10 28v897l-502 -1020h-12l-484 995v-661q0 -87 10 -195q0 -54 35 -59l146 -23v-59h-488z" />
<glyph unicode="N" horiz-adv-x="1484" d="M61 0v59l123 21q20 3 27 11.5t10 29.5q1 12 4 53.5t5.5 85t2.5 78.5v803q0 25 -14 32q-7 4 -45 13l-100 22v62h356l727 -910v566q0 121 -12 211q-4 44 -39 49l-166 24v60h487v-60l-120 -20q-21 -3 -31 -13t-10 -34q-1 -13 -4 -50.5t-5 -79.5t-2 -83v-955h-67l-854 1067 v-702q0 -98 12 -215q3 -21 10 -29.5t27 -11.5l166 -25v-59h-488z" />
<glyph unicode="O" horiz-adv-x="1478" d="M74 651q0 131 48.5 249.5t134 207.5t211 142t269.5 53q145 0 270.5 -52.5t211.5 -141.5t135 -208t49 -250q0 -132 -49 -255t-134.5 -217t-211.5 -150t-271 -56q-144 0 -269.5 56.5t-211 150.5t-134 216.5t-48.5 254.5zM334 651q0 -90 13 -173.5t43.5 -162.5t76 -137 t115 -93.5t155.5 -35.5q107 0 188 53t127 141.5t68.5 191.5t22.5 216q0 89 -13 170t-44 156.5t-76.5 130.5t-115.5 88t-157 33q-106 0 -186.5 -49.5t-126.5 -133.5t-68 -183.5t-22 -211.5z" />
<glyph unicode="P" horiz-adv-x="1189" d="M78 0v59l112 25q38 8 47 14t9 27v1018q0 22 -8.5 28.5t-44.5 14.5l-115 26v58h586q101 0 187.5 -20.5t155 -61.5t107.5 -108.5t39 -155.5q0 -185 -119 -296.5t-340 -111.5q-117 0 -211 16v-405q0 -23 8 -31t39 -12l158 -25v-59h-610zM483 586h78q187 0 272 81.5t85 250.5 q0 282 -295 282h-25q-65 0 -115 -16v-598z" />
<glyph unicode="Q" horiz-adv-x="1478" d="M74 651q0 131 48.5 249.5t134 207.5t211 142t269.5 53q145 0 270.5 -52.5t211.5 -141.5t135 -208t49 -250q0 -130 -39.5 -242t-109 -193t-157.5 -137t-190 -85q75 -103 149.5 -183.5t160.5 -136.5q3 -2 31 -8t61 -13.5t43 -10.5v-56h-316q-132 93 -315 387 q-140 2 -262.5 59t-206 150.5t-131 215.5t-47.5 253zM334 651q0 -90 13 -173.5t43.5 -162.5t76 -137t115 -93.5t155.5 -35.5q107 0 188 53t127 141.5t68.5 191.5t22.5 216q0 89 -13 170t-44 156.5t-76.5 130.5t-115.5 88t-157 33q-106 0 -186.5 -49.5t-126.5 -133.5 t-68 -183.5t-22 -211.5z" />
<glyph unicode="R" horiz-adv-x="1329" d="M78 0v59l112 25q38 8 47 14t9 27v1018q0 22 -8.5 28.5t-44.5 14.5l-115 26v58h592q216 0 350.5 -86.5t134.5 -247.5q0 -122 -97 -217.5t-233 -124.5q58 -37 146 -174l119 -191q58 -95 127 -139l112 -31v-59h-328q-62 40 -172 227l-190 324h-156v-424q0 -23 8 -30t41 -13 l117 -25v-59h-571zM483 629h121q156 0 233.5 78.5t77.5 222.5q0 270 -284 270h-35q-36 0 -113 -20v-551z" />
<glyph unicode="S" horiz-adv-x="1062" d="M92 444h64q36 -192 82 -282q43 -54 97 -85.5t136 -31.5q123 0 192.5 69t69.5 181q0 99 -51 156.5t-147 97.5l-129 53q-145 60 -219 145.5t-74 215.5q0 151 126 245.5t308 94.5q149 0 274 -70l43 59h43l13 -401h-60q-12 63 -37 130t-51 107q-49 49 -101 78t-126 29 q-89 0 -150 -57t-61 -152q0 -81 40 -132.5t128 -92.5l186 -88q45 -21 78 -40t74 -51.5t67 -68t44 -87.5t18 -112q0 -176 -133 -277.5t-342 -101.5q-188 0 -314 62l-35 -62h-45q2 67 2 102v15q0 34 -4.5 171t-5.5 181z" />
<glyph unicode="T" horiz-adv-x="1239" d="M20 889l15 407q29 -12 82 -18q44 -8 106 -8h813q36 0 91 7t77 17l15 -407h-58q-13 65 -42 141.5t-56 118.5q-53 31 -104 41t-130 10h-92v-1073q0 -21 8 -26t46 -13l135 -27v-59h-613v59l131 27q39 8 47.5 13t8.5 26v1073h-72q-87 0 -155.5 -15t-98.5 -34 q-58 -85 -98 -260h-56z" />
<glyph unicode="U" horiz-adv-x="1437" d="M68 1210v60h546v-60l-120 -24q-29 -6 -37 -14.5t-8 -30.5v-666q0 -192 85 -296.5t232 -104.5q93 0 163.5 32t113 90t63 132.5t20.5 165.5v649q0 19 -8.5 27t-38.5 14l-129 26v60h424v-60l-90 -22q-30 -7 -38.5 -15.5t-8.5 -29.5v-649q0 -246 -132.5 -383.5t-367.5 -137.5 q-157 0 -273 53.5t-184.5 168t-68.5 280.5v668q0 21 -8.5 30t-36.5 15z" />
<glyph unicode="V" horiz-adv-x="1253" d="M-20 1208v62h509v-62l-106 -22q-30 -6 -37.5 -15t0.5 -36l338 -873l342 879q9 22 1.5 31t-42.5 16l-96 22v60h385v-60l-66 -20q-2 -1 -9 -3t-9 -2.5t-7.5 -3t-8.5 -4.5t-7.5 -5.5t-7 -7.5t-6 -10t-6.5 -13l-496 -1164h-98l-457 1164q-6 16 -16 25.5t-18 13t-27 10.5z" />
<glyph unicode="W" horiz-adv-x="1927" d="M-23 1210v60h508v-60l-98 -22q-33 -8 -41 -15t-2 -26l287 -875l274 740l-53 131q-8 23 -21.5 32.5t-37.5 16.5l-58 18v60h492v-60l-92 -22q-28 -7 -35 -19t2 -32l309 -858l291 858q9 26 -1 35t-52 18l-99 20v60h400v-60l-66 -20q-35 -10 -45 -20q-9 -11 -16 -29 l-445 -1164h-94l-323 887l-369 -887h-96l-404 1166q-6 16 -16 25.5t-18.5 13.5t-28.5 10z" />
<glyph unicode="X" horiz-adv-x="1271" d="M-2 0v59l78 23q47 8 76 45l372 487l-393 529q-28 38 -63 49l-50 18v60h517v-60l-89 -16q-45 -7 -45 -29q0 -10 9 -22l266 -373l248 360q13 20 6.5 31t-39.5 23l-103 28v58h435v-58l-86 -22q-43 -10 -72 -47l-336 -445l401 -544q46 -65 87 -76l57 -17v-61h-524v61l96 21 q29 6 33.5 17t-13.5 36l-288 404l-275 -392q-15 -22 -7.5 -35.5t42.5 -23.5l92 -29v-59h-432z" />
<glyph unicode="Y" horiz-adv-x="1236" d="M-2 1208v62h510v-62l-94 -22q-37 -8 -40 -16q-4 -8 7 -25l319 -492l285 486q13 27 3 36t-52 17l-90 18v60h395v-60l-59 -16q-27 -7 -42.5 -16.5t-29.5 -34.5l-362 -578v-436q0 -21 8.5 -27t44.5 -14l139 -29v-59h-621v59l138 29q33 6 44 14t11 27v397l-399 613 q-15 23 -25.5 32.5t-32.5 16.5z" />
<glyph unicode="Z" horiz-adv-x="1153" d="M70 0v39l733 1147h-262q-217 0 -277 -21q-35 -47 -64.5 -120t-45.5 -138h-56l23 383q42 -9 78 -14q49 -6 100 -6h797v-35l-729 -1147h270q213 0 285 31q40 45 85.5 122t67.5 144h55l-67 -385h-993z" />
<glyph unicode="[" horiz-adv-x="657" d="M127 -344v1753h461v-109l-316 25v-1583l320 27v-113h-465z" />
<glyph unicode="\" horiz-adv-x="614" d="M31 1063h104l449 -1217h-105z" />
<glyph unicode="]" horiz-adv-x="657" d="M66 1298v111h462v-1753h-460v108l315 -24v1583z" />
<glyph unicode="^" horiz-adv-x="999" d="M147 1032l330 420h45l330 -420h-64l-286 250h-4l-287 -250h-64z" />
<glyph unicode="_" horiz-adv-x="1024" d="M0 -162h1024v-100h-1024v100z" />
<glyph unicode="`" horiz-adv-x="1320" d="M369 1491q0 29 21 49.5t50 20.5q34 0 66 -27.5t45 -60.5l129 -299h-49l-209 208q-53 53 -53 109z" />
<glyph unicode="a" horiz-adv-x="1114" d="M-29 0v55l95 21q19 4 29 15t20 34l381 915h110l379 -917q17 -39 51 -47l76 -21v-55h-481v55l94 21q27 6 35 18t-2 37l-68 164h-395l-66 -170q-4 -10 -4 -19q0 -25 33 -32l94 -19v-55h-381zM322 377h335l-172 428z" />
<glyph unicode="b" horiz-adv-x="1181" d="M80 0v55l104 23q38 8 47 14t9 27v776q0 20 -9 26.5t-45 14.5l-106 25v55h561q187 0 288 -64t101 -186q0 -86 -70.5 -146t-173.5 -90q130 -25 211.5 -90t81.5 -168q0 -75 -33 -130t-92 -85t-128 -43.5t-152 -13.5h-594zM453 80q63 -14 106 -14h53q246 0 246 213 q0 104 -84.5 158.5t-222.5 54.5h-98v-412zM453 557h104q264 0 264 203q0 102 -63.5 146t-179.5 44h-37q-41 0 -88 -14v-379z" />
<glyph unicode="c" horiz-adv-x="1216" d="M82 510q0 245 169.5 387.5t446.5 142.5q182 0 303 -51l33 43h39l17 -354h-60q-11 56 -36 119.5t-52 99.5q-87 80 -237 80q-98 0 -174.5 -38.5t-122 -104.5t-68.5 -145.5t-23 -168.5q0 -207 103 -339t260 -132q120 0 231 70q29 26 67 99t52 128h62l-62 -303 q-61 -25 -157.5 -44t-200.5 -19q-145 0 -259 40.5t-185.5 112.5t-108.5 167.5t-37 209.5z" />
<glyph unicode="d" horiz-adv-x="1331" d="M80 0v55l104 23q38 8 47 14t9 27v776q0 20 -9 26.5t-45 14.5l-106 25v55h563q125 0 235.5 -33t195 -94.5t134 -156t49.5 -210.5q0 -109 -41 -204.5t-114.5 -166t-181 -111t-234.5 -40.5h-606zM455 82q59 -19 133 -19h39q182 0 291.5 121t109.5 332q0 72 -12.5 134 t-44 119t-79 97t-122.5 64t-170 24h-39q-61 0 -106 -20v-852z" />
<glyph unicode="e" horiz-adv-x="1128" d="M80 0v55l104 23q38 8 47 14t9 27v776q0 20 -9 26.5t-45 14.5l-106 25v55h727q86 0 147 18l31 -325h-51q-40 132 -88 188q-32 19 -105.5 34t-154.5 15h-15q-54 0 -116 -10v-371h192q36 21 64 65t34 85h39v-383h-39q-23 111 -98 157h-192v-409q9 -1 34 -4.5t50 -5.5t59 -2 h41q60 0 130 13.5t105 37.5q27 30 58 91.5t49 117.5h51l-51 -328h-901z" />
<glyph unicode="f" horiz-adv-x="1038" d="M80 0v55l104 23q38 8 47 14t9 27v776q0 20 -9 26.5t-43 14.5l-108 25v55h686q132 0 195 18l32 -325h-59q-38 125 -86 188q-32 19 -98.5 34t-139.5 15h-35q-76 0 -120 -10v-387h190q28 21 55 64.5t33 80.5h45v-387h-45q-12 45 -37 95.5t-51 70.5h-190v-350q0 -21 9.5 -28 t45.5 -13l152 -29v-53h-582z" />
<glyph unicode="g" horiz-adv-x="1277" d="M74 528q0 231 179.5 371.5t471.5 140.5q174 0 299 -51l33 43h49l16 -354h-55q-10 52 -38.5 120.5t-53.5 100.5q-90 74 -256 74q-190 0 -299 -120t-109 -316q0 -116 31.5 -210.5t84.5 -154t120.5 -91.5t140.5 -32q64 0 122.5 18t92.5 48v260q0 15 -8 21.5t-37 13.5 l-125 30v56h455v-50l-31 -12q-31 -13 -38 -20t-7 -31v-283l8 -30q-68 -34 -198 -60t-269 -26q-265 0 -422 153t-157 391z" />
<glyph unicode="h" horiz-adv-x="1464" d="M80 0v55l104 23q38 8 47 14t9 27v776q0 20 -9 26.5t-45 14.5l-106 25v55h524v-55l-94 -25q-21 -5 -29 -7.5t-15.5 -7t-9 -10t-1.5 -16.5v-326h557v326q0 19 -9 25t-45 16l-98 25v55h524v-55l-104 -25q-36 -8 -45.5 -14.5t-9.5 -26.5v-776q0 -21 8.5 -27t44.5 -14l106 -23 v-55h-524v55l96 23q45 11 51 18q5 7 5 23v364h-557v-364q0 -21 8.5 -27t44.5 -14l96 -23v-55h-524z" />
<glyph unicode="i" horiz-adv-x="684" d="M80 0v55l104 23q38 8 47 14t9 27v776q0 20 -9 26.5t-45 14.5l-106 25v55h524v-55l-94 -25q-21 -5 -29 -7.5t-15.5 -7t-9 -10t-1.5 -16.5v-776q0 -21 8.5 -27t44.5 -14l96 -23v-55h-524z" />
<glyph unicode="j" horiz-adv-x="679" d="M-98 -274q0 39 29.5 64.5t70.5 25.5q61 0 86 -50q12 -24 12 -48q0 -26 -14 -52q139 21 139 266v963q0 20 -8 27t-43 14l-108 25v55h534v-55l-104 -25q-36 -8 -46 -14.5t-10 -26.5v-918q0 -94 -30 -166t-83 -116t-120.5 -66t-147.5 -22q-68 0 -112.5 30.5t-44.5 88.5z" />
<glyph unicode="k" horiz-adv-x="1251" d="M80 0v55l104 23q38 8 47 14t9 27v776q0 20 -9 26.5t-45 14.5l-106 25v55h536v-55l-106 -25q-36 -8 -45.5 -14.5t-9.5 -26.5v-776q0 -21 8.5 -27t44.5 -14l108 -23v-55h-536zM453 514v12q42 16 61 35l358 338q14 14 14 24q0 15 -34 21l-78 14v58h426v-55l-76 -15 q-75 -14 -110 -45l-350 -313l264 -324q122 -148 200 -186l105 -25v-53h-320q-78 58 -202 217l-219 281q-4 6 -13.5 9.5t-17.5 4.5z" />
<glyph unicode="l" horiz-adv-x="1064" d="M80 0v55l104 23q38 8 47 14t9 27v776q0 20 -9 26.5t-45 14.5l-106 25v55h571v-55l-143 -33q-34 -8 -43.5 -15t-9.5 -26v-805q52 -14 153 -14h25q48 0 118 16t101 37q53 61 115 272h63l-59 -393h-891z" />
<glyph unicode="m" horiz-adv-x="1673" d="M57 0v55l131 21q39 5 39 57q11 107 11 189v571q0 19 -8.5 25t-43.5 14l-102 24v60h365l382 -729l394 729h366v-55l-108 -27q-32 -8 -40.5 -14t-8.5 -25v-774q0 -21 8.5 -27t44.5 -14l108 -25v-55h-528v55l98 25q39 9 46.5 14.5t7.5 26.5v702l-443 -821h-10l-428 797v-475 q0 -40 2 -76.5t4.5 -68t3.5 -42.5q0 -54 35 -59l135 -23v-55h-461z" />
<glyph unicode="n" horiz-adv-x="1363" d="M63 0v55l113 21q18 3 25 11t10 28q12 123 12 209v565q0 24 -9.5 31t-49.5 16l-90 22v58h334l639 -717v440q0 53 -9 150q-4 43 -34 47l-158 25v55h459v-55l-113 -21q-19 -3 -28 -12.5t-9 -32.5q-10 -103 -10 -150v-765h-96l-727 823v-477q0 -90 12 -207q3 -19 11 -27.5 t26 -11.5l155 -25v-55h-463z" />
<glyph unicode="o" horiz-adv-x="1320" d="M74 520q0 146 73 264t207 187t305 69q260 0 422 -148.5t162 -371.5q0 -109 -42.5 -207.5t-117 -172t-185 -117t-239.5 -43.5q-127 0 -237.5 43.5t-186 116.5t-118.5 172t-43 208zM311 520q0 -69 11.5 -134t38 -126.5t66 -107.5t99 -73.5t133.5 -27.5q91 0 161 41 t109.5 110t59 149t19.5 169q0 69 -11.5 132t-38 121.5t-66 101.5t-99.5 68.5t-134 25.5q-91 0 -160.5 -38.5t-109 -104t-59 -142.5t-19.5 -164z" />
<glyph unicode="p" horiz-adv-x="1085" d="M80 0v55l106 23q37 8 45.5 14t8.5 27v776q0 20 -9 26.5t-45 14.5l-106 25v55h534q122 0 217.5 -28t155.5 -92t60 -157q0 -149 -105.5 -240t-298.5 -91q-95 0 -188 14v-303q0 -21 7.5 -27t39.5 -12l135 -25v-55h-557zM455 473h63q164 0 240 63t76 197q0 107 -63.5 162 t-201.5 55h-24q-36 0 -90 -14v-463z" />
<glyph unicode="q" horiz-adv-x="1320" d="M74 520q0 224 162 372t423 148q264 0 424 -146.5t160 -373.5q0 -114 -35 -207t-96 -155t-133.5 -102t-157.5 -60q173 -216 283 -287q3 -2 28.5 -7t56.5 -11t40 -8v-58h-283q-108 64 -309 355q-256 3 -409.5 151.5t-153.5 388.5zM311 520q0 -67 12 -132t39 -126.5 t66.5 -108t99 -74.5t131.5 -28q90 0 159.5 42t109.5 111t60 149.5t20 166.5q0 68 -11.5 131t-38.5 121.5t-66.5 101.5t-99 69t-133.5 26t-134 -26t-99.5 -69.5t-65.5 -102.5t-37.5 -121.5t-11.5 -129.5z" />
<glyph unicode="r" horiz-adv-x="1220" d="M80 0v55l104 23q38 8 47 14t9 27v776q0 20 -9 26.5t-45 14.5l-106 25v55h549q94 0 169.5 -14.5t134.5 -45t91.5 -83t32.5 -123.5q0 -97 -78 -173t-199 -106q29 -16 57.5 -44.5t67.5 -88.5l99 -152q43 -65 112 -108l105 -23v-55h-299q-53 32 -152 182l-168 252h-147v-315 q0 -20 9.5 -26.5t45.5 -14.5l104 -23v-55h-534zM455 508h110q273 0 273 235q0 207 -252 207h-41q-13 0 -90 -16v-426z" />
<glyph unicode="s" horiz-adv-x="970" d="M94 356h68q24 -142 69 -217q39 -43 85 -67.5t118 -24.5q109 0 168.5 50.5t59.5 138.5q0 80 -43.5 122t-131.5 76l-112 43q-260 97 -260 289q0 82 53 145.5t139.5 96t190.5 32.5q135 0 239 -55l39 47h43l12 -321h-65q-22 105 -80 186q-40 39 -81.5 58.5t-108.5 19.5 q-79 0 -130 -42t-51 -118q0 -63 32 -98.5t110 -69.5l168 -72q48 -20 85 -42t77 -56.5t62.5 -83.5t22.5 -108q0 -146 -114.5 -225.5t-302.5 -79.5q-169 0 -277 49l-31 -49h-45q2 54 2 82v12q0 26 -4.5 137t-5.5 145z" />
<glyph unicode="t" horiz-adv-x="1107" d="M20 674l13 362q22 -7 71 -14q44 -6 95 -6h727q32 0 80 6t67 14l14 -362h-57q-13 58 -38.5 130t-47.5 103q-47 26 -90 33.5t-111 7.5h-84v-821q0 -20 8.5 -25.5t45.5 -13.5l139 -33v-55h-596v55l135 33q38 9 45.5 14t7.5 25v821h-65q-150 0 -217 -39q-38 -49 -86 -235h-56 z" />
<glyph unicode="u" horiz-adv-x="1314" d="M68 961v55h514v-55l-111 -25q-30 -6 -39.5 -13.5t-9.5 -27.5v-506q0 -150 75 -234.5t203 -84.5q159 0 236.5 93.5t77.5 239.5v494q0 20 -8 26.5t-39 12.5l-119 25v55h403v-55l-82 -23q-32 -9 -39.5 -15t-7.5 -26v-502q0 -195 -118.5 -305t-325.5 -110q-213 0 -342 102 t-129 299v514q0 20 -7 27t-36 14z" />
<glyph unicode="v" horiz-adv-x="1130" d="M-20 958v58h485v-60l-96 -18q-32 -6 -41 -16t0 -35l290 -668l285 672q8 21 -0.5 31.5t-42.5 17.5l-84 16v60h375v-58l-68 -18q-13 -3 -17.5 -5t-14.5 -7t-16.5 -13.5t-12.5 -21.5l-424 -911h-94l-400 909q-10 24 -23.5 33t-39.5 16z" />
<glyph unicode="w" horiz-adv-x="1716" d="M-23 961v55h478v-58l-82 -16q-33 -6 -43.5 -15t-3.5 -28l239 -674l240 588l-37 78q-8 24 -22.5 33.5t-40.5 17.5l-60 19v55h461v-58l-80 -18q-29 -7 -35.5 -19t2.5 -32l258 -658l246 656q9 26 -1 35t-52 18l-88 18v58h383v-58l-60 -18q-19 -6 -28 -10t-18.5 -14 t-16.5 -27l-381 -907h-92l-285 704l-317 -704h-97l-344 907q-8 24 -22.5 34t-42.5 19z" />
<glyph unicode="x" horiz-adv-x="1148" d="M-2 0v53l84 23q46 12 80 51l311 367l-330 399q-34 39 -65 49l-62 19v55h492v-58l-76 -14q-17 -4 -26.5 -6.5t-17.5 -8t-7.5 -13t8.5 -17.5l219 -276l201 266q9 12 11 18.5t-4 12t-14.5 8.5t-29.5 8l-88 25v55h424v-53l-90 -23q-48 -12 -78 -47l-283 -338l351 -426 q37 -45 82 -57l61 -17v-55h-489v57l67 13q24 4 35.5 9t15.5 15t-10 25l-246 305l-223 -291q-17 -22 -11 -31t42 -20l78 -25v-57h-412z" />
<glyph unicode="y" horiz-adv-x="1110" d="M-2 954v62h471v-62l-74 -18q-24 -6 -32 -10t-8 -13t12 -26l251 -355l236 359q9 13 10.5 21t-7.5 13.5t-19 8t-35 8.5l-68 14v60h379v-60l-63 -14q-27 -6 -43.5 -18t-34.5 -37l-303 -434v-326q0 -21 8.5 -27t44.5 -14l143 -31v-55h-608v55l141 31q38 8 47 14t9 27v295 l-334 467q-25 36 -60 49z" />
<glyph unicode="z" horiz-adv-x="1038" d="M70 0v31l645 907h-232q-182 0 -233 -16q-51 -60 -96 -226h-60l21 336q29 -7 69 -10q44 -6 88 -6h713v-29l-641 -907h238q177 0 241 24q32 33 72 104.5t61 129.5h60l-60 -338h-886z" />
<glyph unicode="{" horiz-adv-x="1024" d="M143 504v59q58 0 110.5 14.5t98 45t72.5 85t27 126.5v344q0 90 16 152t56.5 109.5t114.5 70t185 22.5v-51q-115 0 -164 -62.5t-49 -210.5v-336q0 -124 -69 -216.5t-195 -106.5q134 -19 199 -92t65 -211v-434q0 -146 57.5 -209.5t176.5 -63.5v-57q-216 0 -304.5 87.5 t-88.5 266.5v428q0 65 -27 113t-72.5 75t-98 39.5t-110.5 12.5z" />
<glyph unicode="|" horiz-adv-x="749" d="M295 -520v2052h158v-2050z" />
<glyph unicode="}" horiz-adv-x="1024" d="M180 -461q119 0 177.5 64t58.5 209v434q0 137 65 209.5t199 93.5q-126 13 -195 105.5t-69 217.5v336q0 147 -49.5 210t-165.5 63v51q111 0 185 -22.5t115 -70t57.5 -109.5t16.5 -152v-344q0 -72 26.5 -126.5t72 -85t97.5 -45t110 -14.5v-59q-58 0 -109.5 -12.5t-97 -39.5 t-72.5 -75t-27 -113v-428q0 -88 -20 -151.5t-65 -110t-122 -69.5t-188 -23v57z" />
<glyph unicode="~" horiz-adv-x="1247" d="M297 1094q0 35 10.5 74t31 77.5t59.5 64t89 25.5q32 0 62 -9.5t44.5 -18t43 -30t35.5 -26.5q3 -2 15.5 -10.5t16.5 -11t15.5 -9.5t18.5 -9.5t18.5 -6t22.5 -5t24 -1.5q52 0 80 40t28 87h47q0 -117 -44 -183.5t-134 -66.5q-65 0 -180 74q-7 5 -32 22t-37 24t-33.5 14.5 t-42.5 7.5q-55 0 -81 -37.5t-26 -85.5h-51z" />
<glyph unicode="&#xa1;" horiz-adv-x="546" d="M147 29q27 106 63 317.5t36 310.5h57q0 -99 35.5 -311t62.5 -317q-7 -5 -18.5 -13.5t-45 -22t-63.5 -13.5q-35 0 -66.5 12t-45.5 24zM150 922q0 54 32.5 86t87.5 32q57 0 92 -32t35 -86t-35 -85.5t-92 -31.5q-55 0 -87.5 31.5t-32.5 85.5z" />
<glyph unicode="&#xa2;" d="M45 510q0 238 153 385.5t390 155.5v123h55v-123q122 -5 260 -62l33 43h39l16 -354h-59q-11 56 -36 119.5t-52 99.5q-42 38 -88 62t-113 28v-942q16 2 30.5 6t29.5 10l25 10t25 12.5t21 11.5t21.5 13t17.5 11q29 26 67 99t52 128h61l-61 -303q-149 -61 -289 -70v-159h-55 v157h-4q-135 0 -240 42t-169.5 116t-97 170.5t-32.5 210.5zM281 520q0 -207 86 -341.5t221 -137.5v944q-63 -5 -114.5 -34t-86.5 -74t-59.5 -104t-35.5 -122.5t-11 -130.5z" />
<glyph unicode="&#xa3;" d="M0 -12v37l90 104q66 0 112.5 53.5t55.5 155.5l12 131h-168l43 86h131l9 78q17 189 138 298t310 109q112 0 186 -45t74 -110q0 -52 -28 -82.5t-78 -30.5q-47 0 -74.5 34t-24.5 76.5t33 65.5q-11 11 -37.5 19t-52.5 8q-116 0 -166.5 -71.5t-66.5 -229.5l-11 -119h283v-86 h-291l-4 -29q-16 -117 -87.5 -200.5t-164.5 -112.5q142 0 306 -26.5t212 -26.5q106 0 153.5 50.5t47.5 160.5h51q0 -351 -315 -351q-24 0 -49.5 1.5t-42 3t-46.5 6.5t-38.5 6t-45 8t-40.5 8q-177 33 -322 33q-67 0 -94 -12z" />
<glyph unicode="&#xa5;" d="M8 954v62h471v-62l-73 -18q-24 -6 -32 -10t-8.5 -13t11.5 -26l231 -355l215 359q9 13 10.5 21t-7.5 13.5t-19 8t-35 8.5l-67 14v60h378v-60l-63 -14q-27 -6 -43.5 -18t-34.5 -37l-252 -387h287v-76h-318v-127h318v-78h-318v-92q0 -21 8.5 -27t45.5 -14l143 -31v-55h-608 v55l141 31q38 8 46.5 14t8.5 27v92h-331v78h331v127h-331v76h278l-260 389q-15 22 -27 32t-32 17z" />
<glyph unicode="&#xa6;" horiz-adv-x="749" d="M295 285h160v-801h-160v801zM295 815v721h160v-721h-160z" />
<glyph unicode="&#xa7;" horiz-adv-x="1062" d="M150 395q0 115 73.5 193.5t182.5 118.5l-11 6q-74 44 -119 113t-45 157q0 62 24.5 114t63.5 86.5t89.5 58.5t102 35t101.5 11q146 0 247.5 -60.5t101.5 -150.5q0 -51 -32.5 -81.5t-76.5 -30.5q-28 0 -54 12t-46 35.5t-18 66t32 95.5q-65 47 -152 47q-86 0 -144 -49.5 t-58 -145.5q0 -68 35.5 -110t132.5 -103l139 -88q45 -29 67.5 -44.5t59.5 -48t55.5 -61t33.5 -72t15 -93.5q0 -113 -72 -195t-180 -123l6 -4q6 -4 7 -6q67 -57 104 -117.5t37 -142.5q0 -68 -31.5 -126.5t-83 -97t-116.5 -60t-134 -21.5q-140 0 -237.5 55.5t-97.5 144.5 q0 50 33 81.5t77 31.5q27 0 53 -12t45.5 -35t18 -65.5t-30.5 -96.5q60 -37 137 -37q80 0 134.5 56t54.5 141q0 67 -31 108t-123 103l-141 94q-39 27 -65 46.5t-60.5 51.5t-54.5 61.5t-34.5 70t-14.5 83.5zM330 446q0 -28 8.5 -53t18.5 -42t34 -39t38 -32.5t48 -34.5t47 -34 l131 -94l29 20q88 63 88 215q0 100 -80 156l-239 168q-56 -37 -89.5 -100t-33.5 -130z" />
<glyph unicode="&#xa8;" horiz-adv-x="1320" d="M348 1278q0 44 30.5 74t76.5 30q43 0 73.5 -30t30.5 -74q0 -43 -30.5 -73.5t-73.5 -30.5q-45 0 -76 30.5t-31 73.5zM735 1278q0 44 31 74t74 30q44 0 75 -30t31 -74q0 -43 -31 -73.5t-75 -30.5q-43 0 -74 30.5t-31 73.5z" />
<glyph unicode="&#xa9;" horiz-adv-x="1490" d="M70 637q0 137 53.5 261.5t144.5 215t215.5 144t261.5 53.5q182 0 338 -90.5t247 -246t91 -337.5t-91 -337t-246.5 -245t-338.5 -90q-137 0 -261.5 53.5t-215.5 143t-144.5 214t-53.5 261.5zM180 637q0 -156 71.5 -289t202 -213t291.5 -80q120 0 226.5 47t180 126.5 t116.5 186t43 222.5t-43 223t-116.5 186.5t-180 127t-226.5 47.5q-161 0 -291.5 -80.5t-202 -214t-71.5 -289.5zM348 637q0 161 125.5 264t319.5 103q111 0 194 -33l27 24h33l14 -254h-41q-31 126 -66 166q-28 23 -61.5 34t-95.5 11q-271 0 -271 -307q0 -148 67.5 -232.5 t184.5 -84.5q86 0 154 39q20 17 46 70.5t40 97.5h45l-45 -220q-110 -43 -244 -43q-202 0 -314 105.5t-112 259.5z" />
<glyph unicode="&#xaa;" horiz-adv-x="1017" d="M94 342v70h826v-70h-826zM94 547v39l68 16q25 5 37 35l276 666h78l276 -666q10 -27 37 -35l54 -16v-39h-347v39l68 16q20 5 25.5 12.5t-0.5 26.5l-52 123h-284l-49 -127q-11 -30 20 -37l68 -14v-39h-275zM348 823h242l-123 310z" />
<glyph unicode="&#xab;" horiz-adv-x="796" d="M20 535v53l338 325v-67l-176 -283v-4l176 -283v-67zM377 535v53l338 325v-67l-176 -283v-4l176 -283v-67z" />
<glyph unicode="&#xac;" d="M80 446v105h926v-465h-111v360h-815z" />
<glyph unicode="&#xad;" horiz-adv-x="581" d="M57 518v144h467v-144h-467z" />
<glyph unicode="&#xae;" horiz-adv-x="1490" d="M70 637q0 137 53.5 261.5t144.5 215t215.5 144t261.5 53.5q182 0 338 -90.5t247 -246t91 -337.5t-91 -337t-246.5 -245t-338.5 -90q-137 0 -261.5 53.5t-215.5 143t-144.5 214t-53.5 261.5zM180 637q0 -156 71.5 -289t202 -213t291.5 -80q120 0 226.5 47t180 126.5 t116.5 186t43 222.5t-43 223t-116.5 186.5t-180 127t-226.5 47.5q-161 0 -291.5 -80.5t-202 -214t-71.5 -289.5zM373 297v43l71 14q24 5 29.5 8t5.5 15v541q0 12 -4.5 14.5t-28.5 7.5l-73 16v41h362q136 0 216.5 -47t80.5 -137q0 -68 -58.5 -124t-142.5 -71 q16 -9 30.5 -24.5t45.5 -54.5q5 -7 8 -11l76 -94q47 -60 80 -78l76 -16v-43h-211q-35 19 -111 125l-120 170h-74v-215q0 -12 5 -15t26 -8l73 -14v-43h-362zM631 631h67q97 0 138 42.5t41 123.5q0 67 -32 103t-116 36h-22q-26 0 -76 -10v-295z" />
<glyph unicode="&#xaf;" horiz-adv-x="1320" d="M430 1174v81h467v-81h-467z" />
<glyph unicode="&#xb0;" horiz-adv-x="886" d="M88 1059q0 149 102.5 250.5t251.5 101.5q150 0 252.5 -101.5t102.5 -250.5q0 -150 -102.5 -252t-252.5 -102t-252 102t-102 252zM195 1055q0 -113 71.5 -192t175.5 -79t174 79t70 192q0 115 -70 193.5t-174 78.5t-175.5 -79t-71.5 -193z" />
<glyph unicode="&#xb1;" d="M72 -199h934v-98h-934v98zM72 446v97h409v467h115v-467h410v-97h-410v-514h-115v514h-409z" />
<glyph unicode="&#xb2;" horiz-adv-x="798" d="M51 557v49l262 240q33 30 54 50.5t52 58t49 70.5t31.5 79t12.5 94q-1 91 -49 135.5t-129 44.5q-86 0 -144.5 -49t-58.5 -137q0 -33 2 -47h-53q-8 36 -8 61q0 50 19 96.5t56 85t99 62t139 23.5q143 0 228 -66t85 -186q0 -32 -9 -65t-21 -59.5t-36 -57.5t-41 -51t-49 -49.5 t-47.5 -42.5t-49.5 -40.5t-42 -34.5l-178 -145h361q33 0 47 20l104 140h47q-15 -46 -32 -112.5t-28.5 -115t-12.5 -51.5h-660z" />
<glyph unicode="&#xb3;" horiz-adv-x="798" d="M70 674q0 38 22.5 63t65.5 25q44 0 67.5 -28t28.5 -68l6 -48q43 -26 86 -26q213 0 213 215q0 83 -58 128.5t-153 45.5q-50 0 -84 -14v61q95 9 152 37q53 25 86 66.5t37 121.5q3 66 -46 98.5t-116 32.5q-91 0 -146 -40t-55 -127h-51q0 105 79 179t210 74 q134 0 213.5 -53.5t79.5 -148.5q0 -72 -57.5 -134.5t-127.5 -84.5q226 -49 226 -240q0 -128 -109.5 -200t-292.5 -72q-39 0 -84 8t-89.5 23.5t-73.5 43t-29 62.5z" />
<glyph unicode="&#xb4;" horiz-adv-x="1320" d="M637 1174l129 299q13 33 45 60.5t66 27.5q29 0 50 -20.5t21 -49.5q0 -56 -53 -109l-209 -208h-49z" />
<glyph unicode="&#xb5;" horiz-adv-x="1220" d="M158 -356q0 117 16 287t16 241q0 121 -8 415t-8 347h211v-553q0 -283 184 -283q143 0 215 152v684h209v-746q0 -94 76 -94q74 0 135 76l23 -31q-76 -155 -258 -155q-76 0 -130.5 48t-54.5 156q-74 -206 -249 -206q-20 0 -40.5 2.5t-51 10t-55.5 26.5t-38 47 q1 -10 8 -83.5t12 -161.5t5 -181q0 -51 -29.5 -90t-85.5 -39q-102 0 -102 131z" />
<glyph unicode="&#xb6;" horiz-adv-x="1105" d="M33 860q0 83 23 150t65 110.5t93 74t113.5 46.5t119 22.5t118.5 6.5h545v-99h-147v-1171h-111v1171h-158v-1728h-112v971h-66q-60 0 -122.5 14t-128.5 47.5t-116.5 83t-83 127.5t-32.5 174z" />
<glyph unicode="&#xb7;" horiz-adv-x="542" d="M135 618q0 59 40.5 99.5t100.5 40.5q58 0 99 -41t41 -99q0 -57 -41 -98t-99 -41q-60 0 -100.5 40.5t-40.5 98.5z" />
<glyph unicode="&#xb8;" horiz-adv-x="1320" d="M449 -408q56 -38 131 -38q172 0 172 112q0 17 -6.5 32.5t-14 25t-26 21.5t-28 17t-37 18t-36.5 17q-16 8 -26 14.5t-20.5 17.5t-9 25t14.5 31l82 109h51l-69 -90l100 -45q152 -67 152 -170q0 -86 -71 -136.5t-198 -50.5q-46 0 -91 14t-70 33v43z" />
<glyph unicode="&#xb9;" horiz-adv-x="798" d="M82 1288q287 123 371 180h61v-790q0 -27 9.5 -36.5t39.5 -12.5l158 -19v-55h-612v55l174 21q30 3 38.5 12t8.5 35v629h-17l-217 -72z" />
<glyph unicode="&#xba;" horiz-adv-x="1030" d="M94 342v70h842v-70h-842zM94 924q0 162 118 270.5t304 108.5q187 0 303.5 -108t116.5 -271q0 -79 -30.5 -150.5t-84 -125.5t-133 -86t-172.5 -32q-92 0 -172 32t-134 86t-85 125.5t-31 150.5zM264 924q0 -63 14 -121t42.5 -108.5t79 -80.5t116.5 -30q65 0 115 30t78.5 80 t42.5 108t14 122q0 63 -13.5 119t-42 103t-78.5 75t-116 28t-116.5 -28t-79 -75t-42.5 -103t-14 -119z" />
<glyph unicode="&#xbb;" horiz-adv-x="796" d="M82 209v67l176 283v4l-176 283v67l338 -325v-53zM438 209v67l176 283v4l-176 283v67l338 -325v-53z" />
<glyph unicode="&#xbc;" horiz-adv-x="1998" d="M82 1288q287 123 371 180h61v-790q0 -27 9.5 -36.5t39.5 -12.5l158 -19v-55h-612v55l174 21q30 3 38.5 12t8.5 35v629h-17l-217 -72zM176 -297l1227 1483h117l-1227 -1483h-117zM764 -207l434 596q31 3 83 16.5t67 22.5h36v-608h129v-74h-129v-139q0 -14 5.5 -19t23.5 -8 l86 -14v-51h-446v51l116 14q17 2 24 8t7 21v137h-436v47zM874 -180h326v461z" />
<glyph unicode="&#xbd;" horiz-adv-x="1998" d="M82 1288q287 123 371 180h61v-790q0 -27 9.5 -36.5t39.5 -12.5l158 -19v-55h-612v55l174 21q30 3 38.5 12t8.5 35v629h-17l-217 -72zM176 -297l1227 1483h117l-1227 -1483h-117zM858 -436l262 239q42 38 68.5 66t61.5 74.5t52.5 100t16.5 112.5q-1 91 -49 135.5 t-129 44.5q-86 0 -144.5 -49t-58.5 -137q0 -34 2 -48h-53q-8 36 -8 62q0 50 19 96.5t56 85t99 61.5t139 23q143 0 228 -66t85 -186q0 -32 -9 -65t-21.5 -59.5t-36 -57.5t-40.5 -51t-48.5 -49t-47.5 -42t-49.5 -40t-42.5 -35l-178 -146h361q32 0 47 21l104 139h47 q-15 -46 -32 -112.5t-28.5 -114.5t-12.5 -51h-660v49z" />
<glyph unicode="&#xbe;" horiz-adv-x="1998" d="M70 674q0 38 22.5 63t65.5 25q44 0 67.5 -28t28.5 -68l6 -48q43 -26 86 -26q213 0 213 215q0 83 -58 128.5t-153 45.5q-50 0 -84 -14v61q95 9 152 37q53 25 86 66.5t37 121.5q3 66 -46 98.5t-116 32.5q-91 0 -146 -40t-55 -127h-51q0 105 79 179t210 74 q134 0 213.5 -53.5t79.5 -148.5q0 -72 -57.5 -134.5t-127.5 -84.5q226 -49 226 -240q0 -128 -109.5 -200t-292.5 -72q-39 0 -84 8t-89.5 23.5t-73.5 43t-29 62.5zM176 -297l1227 1483h117l-1227 -1483h-117zM764 -207l434 596q31 3 83 16.5t67 22.5h36v-608h129v-74h-129 v-139q0 -14 5.5 -19t23.5 -8l86 -14v-51h-446v51l116 14q17 2 24 8t7 21v137h-436v47zM874 -180h326v461z" />
<glyph unicode="&#xbf;" horiz-adv-x="866" d="M70 229q0 32 8.5 61.5t27.5 55t36.5 45.5t49 42.5t50.5 34.5t55 34t49 30q62 39 68 43v132h137q-1 -35 -12.5 -67.5t-24.5 -54t-37.5 -47.5t-36.5 -36t-37 -31q-66 -54 -94 -114.5t-28 -137.5q0 -70 52.5 -119t133.5 -49q37 0 78.5 13t68.5 32q-17 19 -24.5 30t-14 32 t-6.5 49q0 34 29 60t70 26q38 0 65 -28.5t27 -71.5q0 -26 -9 -47.5t-27 -38.5t-32.5 -27.5t-38.5 -24.5l-39 -22q-92 -53 -221 -53q-152 0 -237.5 62t-85.5 187zM356 922q0 54 33 86t88 32q57 0 92 -32t35 -86t-35 -85.5t-92 -31.5q-56 0 -88.5 31.5t-32.5 85.5z" />
<glyph unicode="&#xc0;" horiz-adv-x="1236" d="M-29 0v59l92 23q39 9 52 47l442 1174h115l440 -1176q12 -36 51 -47l72 -21v-59h-516v59l108 23q27 6 34 17t-1 36l-88 238h-453l-83 -246q-7 -22 0 -31t28 -14l107 -23v-59h-400zM324 1718q0 29 21 49.5t50 20.5q34 0 66 -27.5t45 -60.5l129 -299h-49l-209 209 q-53 53 -53 108zM348 463h391l-200 549z" />
<glyph unicode="&#xc1;" horiz-adv-x="1236" d="M-29 0v59l92 23q39 9 52 47l442 1174h115l440 -1176q12 -36 51 -47l72 -21v-59h-516v59l108 23q27 6 34 17t-1 36l-88 238h-453l-83 -246q-7 -22 0 -31t28 -14l107 -23v-59h-400zM348 463h391l-200 549zM612 1401l129 299q13 33 45 60.5t66 27.5q29 0 50.5 -20.5 t21.5 -49.5q0 -54 -54 -108l-208 -209h-50z" />
<glyph unicode="&#xc2;" horiz-adv-x="1236" d="M-29 0v59l92 23q39 9 52 47l442 1174h115l440 -1176q12 -36 51 -47l72 -21v-59h-516v59l108 23q27 6 34 17t-1 36l-88 238h-453l-83 -246q-7 -22 0 -31t28 -14l107 -23v-59h-400zM281 1401l307 358h61l307 -358h-69l-266 201h-5l-266 -201h-69zM348 463h391l-200 549z " />
<glyph unicode="&#xc3;" horiz-adv-x="1236" d="M-29 0v59l92 23q39 9 52 47l442 1174h115l440 -1176q12 -36 51 -47l72 -21v-59h-516v59l108 23q27 6 34 17t-1 36l-88 238h-453l-83 -246q-7 -22 0 -31t28 -14l107 -23v-59h-400zM293 1401q0 35 10.5 74t31 77.5t59.5 64t89 25.5q32 0 62 -9.5t44 -17.5t43.5 -30 t35.5 -26q3 -2 18 -12.5t19.5 -13t18.5 -10t23 -10.5t23 -5.5t29 -2.5q52 0 80 40t28 87h47q0 -117 -44 -183.5t-134 -66.5q-65 0 -180 74q-7 5 -32 22t-37 24t-33.5 14.5t-42.5 7.5q-55 0 -81 -37.5t-26 -85.5h-51zM348 463h391l-200 549z" />
<glyph unicode="&#xc4;" horiz-adv-x="1236" d="M-29 0v59l92 23q39 9 52 47l442 1174h115l440 -1176q12 -36 51 -47l72 -21v-59h-516v59l108 23q27 6 34 17t-1 36l-88 238h-453l-83 -246q-7 -22 0 -31t28 -14l107 -23v-59h-400zM324 1505q0 45 30 75t76 30q43 0 74 -30.5t31 -74.5q0 -43 -31 -73.5t-74 -30.5 q-45 0 -75.5 30.5t-30.5 73.5zM348 463h391l-200 549zM711 1505q0 44 30.5 74.5t73.5 30.5q44 0 75.5 -30.5t31.5 -74.5q0 -43 -31.5 -73.5t-75.5 -30.5q-43 0 -73.5 30.5t-30.5 73.5z" />
<glyph unicode="&#xc5;" horiz-adv-x="1236" d="M-29 0v59l92 23q39 9 52 47l442 1174h115l440 -1176q12 -36 51 -47l72 -21v-59h-516v59l108 23q27 6 34 17t-1 36l-88 238h-453l-83 -246q-7 -22 0 -31t28 -14l107 -23v-59h-400zM348 463h391l-200 549zM414 1583q0 77 53.5 129.5t140.5 52.5q91 0 144 -52t53 -130 t-53 -130t-144 -52t-142.5 52t-51.5 130zM496 1583q0 -68 31.5 -104.5t80.5 -36.5q51 0 82 35t31 106q0 68 -31.5 103.5t-81.5 35.5q-52 0 -82 -34.5t-30 -104.5z" />
<glyph unicode="&#xc6;" horiz-adv-x="1769" d="M-29 0v59l131 31l639 1180h689q95 0 163 22l37 -407h-55q-48 180 -102 250q-38 24 -114 42.5t-167 18.5h-18q-76 0 -140 -12v-482h215q41 25 74 83t41 108h41v-469h-41q-29 138 -115 197h-215v-535q105 -14 170 -14h35q68 0 146 16.5t118 46.5q33 37 69.5 115t55.5 149 h55l-59 -399h-995v59l166 33v336h-396l-172 -338l150 -31v-59h-406zM440 502h355v669z" />
<glyph unicode="&#xc7;" horiz-adv-x="1363" d="M82 637q0 192 92.5 344.5t254.5 237t364 84.5q198 0 340 -64l38 51h43l23 -440h-55q-16 76 -45.5 163.5t-57.5 125.5q-106 98 -280 98q-99 0 -177.5 -33.5t-129.5 -89.5t-85 -133t-48.5 -159t-14.5 -173q0 -267 120 -434.5t306 -167.5q80 0 152.5 25.5t121.5 60.5 q31 31 74 127.5t64 171.5h57l-70 -381q-66 -30 -170.5 -52.5t-218.5 -23.5l-55 -71l100 -45q152 -67 152 -170q0 -86 -70.5 -136.5t-197.5 -50.5q-47 0 -92 14t-70 33v43q56 -38 131 -38q172 0 172 112q0 17 -6.5 32.5t-14 25t-26 21.5t-28 17t-37 18t-36.5 17 q-16 8 -26 14.5t-20 17.5t-8.5 25t14.5 31l67 90q-154 5 -278.5 61t-204 148t-122 208t-42.5 245z" />
<glyph unicode="&#xc8;" horiz-adv-x="1241" d="M78 0v59l112 25q38 8 47 14t9 27v1018q0 22 -8.5 28.5t-44.5 14.5l-115 24v60h815q96 0 164 22l37 -407h-56q-48 180 -102 250q-37 24 -119.5 42.5t-173.5 18.5h-18q-77 0 -142 -12v-482h228q41 25 74.5 83t41.5 108h41v-469h-41q-29 137 -116 197h-228v-535 q105 -14 172 -14h47q68 0 146.5 16.5t118.5 46.5q31 37 67.5 115t57.5 149h55l-60 -399h-1009zM326 1718q0 29 21 49.5t50 20.5q34 0 66 -27.5t45 -60.5l129 -299h-49l-209 209q-53 53 -53 108z" />
<glyph unicode="&#xc9;" horiz-adv-x="1241" d="M78 0v59l112 25q38 8 47 14t9 27v1018q0 22 -8.5 28.5t-44.5 14.5l-115 24v60h815q96 0 164 22l37 -407h-56q-48 180 -102 250q-37 24 -119.5 42.5t-173.5 18.5h-18q-77 0 -142 -12v-482h228q41 25 74.5 83t41.5 108h41v-469h-41q-29 137 -116 197h-228v-535 q105 -14 172 -14h47q68 0 146.5 16.5t118.5 46.5q31 37 67.5 115t57.5 149h55l-60 -399h-1009zM614 1401l129 299q13 33 45 60.5t66 27.5q29 0 50.5 -20.5t21.5 -49.5q0 -54 -54 -108l-208 -209h-50z" />
<glyph unicode="&#xca;" horiz-adv-x="1241" d="M78 0v59l112 25q38 8 47 14t9 27v1018q0 22 -8.5 28.5t-44.5 14.5l-115 24v60h815q96 0 164 22l37 -407h-56q-48 180 -102 250q-37 24 -119.5 42.5t-173.5 18.5h-18q-77 0 -142 -12v-482h228q41 25 74.5 83t41.5 108h41v-469h-41q-29 137 -116 197h-228v-535 q105 -14 172 -14h47q68 0 146.5 16.5t118.5 46.5q31 37 67.5 115t57.5 149h55l-60 -399h-1009zM283 1401l307 358h61l307 -358h-69l-266 201h-5l-266 -201h-69z" />
<glyph unicode="&#xcb;" horiz-adv-x="1241" d="M78 0v59l112 25q38 8 47 14t9 27v1018q0 22 -8.5 28.5t-44.5 14.5l-115 24v60h815q96 0 164 22l37 -407h-56q-48 180 -102 250q-37 24 -119.5 42.5t-173.5 18.5h-18q-77 0 -142 -12v-482h228q41 25 74.5 83t41.5 108h41v-469h-41q-29 137 -116 197h-228v-535 q105 -14 172 -14h47q68 0 146.5 16.5t118.5 46.5q31 37 67.5 115t57.5 149h55l-60 -399h-1009zM326 1505q0 45 30 75t76 30q43 0 74 -30.5t31 -74.5q0 -43 -31 -73.5t-74 -30.5q-45 0 -75.5 30.5t-30.5 73.5zM713 1505q0 44 30.5 74.5t73.5 30.5q44 0 75.5 -30.5t31.5 -74.5 q0 -43 -31.5 -73.5t-75.5 -30.5q-43 0 -73.5 30.5t-30.5 73.5z" />
<glyph unicode="&#xcc;" horiz-adv-x="729" d="M70 1718q0 29 21 49.5t50 20.5q34 0 66 -27.5t45 -60.5l129 -299h-49l-209 209q-53 53 -53 108zM78 0v59l112 25q38 8 47 14t9 27v1018q0 21 -8.5 27t-44.5 14l-115 26v60h573v-60l-112 -26q-37 -8 -46.5 -14t-9.5 -27v-1018q0 -21 8.5 -27t45.5 -14l114 -25v-59h-573z " />
<glyph unicode="&#xcd;" horiz-adv-x="729" d="M78 0v59l112 25q38 8 47 14t9 27v1018q0 21 -8.5 27t-44.5 14l-115 26v60h573v-60l-112 -26q-37 -8 -46.5 -14t-9.5 -27v-1018q0 -21 8.5 -27t45.5 -14l114 -25v-59h-573zM358 1401l129 299q13 33 45 60.5t66 27.5q29 0 50.5 -20.5t21.5 -49.5q0 -54 -54 -108l-208 -209 h-50z" />
<glyph unicode="&#xce;" horiz-adv-x="729" d="M27 1401l307 358h61l307 -358h-69l-266 201h-5l-266 -201h-69zM78 0v59l112 25q38 8 47 14t9 27v1018q0 21 -8.5 27t-44.5 14l-115 26v60h573v-60l-112 -26q-37 -8 -46.5 -14t-9.5 -27v-1018q0 -21 8.5 -27t45.5 -14l114 -25v-59h-573z" />
<glyph unicode="&#xcf;" horiz-adv-x="729" d="M70 1505q0 45 30 75t76 30q43 0 74 -30.5t31 -74.5q0 -43 -31 -73.5t-74 -30.5q-45 0 -75.5 30.5t-30.5 73.5zM78 0v59l112 25q38 8 47 14t9 27v1018q0 21 -8.5 27t-44.5 14l-115 26v60h573v-60l-112 -26q-37 -8 -46.5 -14t-9.5 -27v-1018q0 -21 8.5 -27t45.5 -14 l114 -25v-59h-573zM457 1505q0 44 30.5 74.5t73.5 30.5q44 0 75.5 -30.5t31.5 -74.5q0 -43 -31.5 -73.5t-75.5 -30.5q-43 0 -73.5 30.5t-30.5 73.5z" />
<glyph unicode="&#xd0;" horiz-adv-x="1464" d="M78 0v59l112 25q38 8 47 14t9 27v487h-168v99h168v432q0 21 -9 28.5t-44 14.5l-115 24v60h616q143 0 269 -41.5t221.5 -118t151 -195t55.5 -264.5q0 -180 -78.5 -327.5t-227.5 -235.5t-342 -88h-665zM483 90q64 -22 164 -22h41q204 0 327.5 154.5t123.5 420.5 q0 91 -14 170t-49 152.5t-88.5 126t-137.5 83.5t-191 31h-43q-75 0 -133 -26v-469h215v-99h-215v-522z" />
<glyph unicode="&#xd1;" horiz-adv-x="1484" d="M61 0v59l123 21q20 3 27 11.5t10 29.5q1 12 4 53.5t5.5 85t2.5 78.5v803q0 25 -14 32q-7 4 -45 13l-100 22v62h356l727 -910v566q0 121 -12 211q-4 44 -39 49l-166 24v60h487v-60l-120 -20q-21 -3 -31 -13t-10 -34q-1 -13 -4 -50.5t-5 -79.5t-2 -83v-955h-67l-854 1067 v-702q0 -98 12 -215q3 -21 10 -29.5t27 -11.5l166 -25v-59h-488zM416 1401q0 35 10.5 74t31 77.5t59.5 64t89 25.5q32 0 62 -9.5t44 -17.5t43.5 -30t35.5 -26q3 -2 18 -12.5t19.5 -13t18.5 -10t23 -10.5t23 -5.5t29 -2.5q52 0 80 40t28 87h47q0 -117 -43.5 -183.5 t-134.5 -66.5q-65 0 -180 74q-6 4 -32 21.5t-37.5 24.5t-33.5 14.5t-43 7.5q-55 0 -80.5 -37.5t-25.5 -85.5h-51z" />
<glyph unicode="&#xd2;" horiz-adv-x="1478" d="M74 651q0 131 48.5 249.5t134 207.5t211 142t269.5 53q145 0 270.5 -52.5t211.5 -141.5t135 -208t49 -250q0 -132 -49 -255t-134.5 -217t-211.5 -150t-271 -56q-144 0 -269.5 56.5t-211 150.5t-134 216.5t-48.5 254.5zM334 651q0 -90 13 -173.5t43.5 -162.5t76 -137 t115 -93.5t155.5 -35.5q107 0 188 53t127 141.5t68.5 191.5t22.5 216q0 89 -13 170t-44 156.5t-76.5 130.5t-115.5 88t-157 33q-106 0 -186.5 -49.5t-126.5 -133.5t-68 -183.5t-22 -211.5zM444 1718q0 29 21.5 49.5t50.5 20.5q34 0 66 -27.5t45 -60.5l129 -299h-49l-209 209 q-54 54 -54 108z" />
<glyph unicode="&#xd3;" horiz-adv-x="1478" d="M74 651q0 131 48.5 249.5t134 207.5t211 142t269.5 53q145 0 270.5 -52.5t211.5 -141.5t135 -208t49 -250q0 -132 -49 -255t-134.5 -217t-211.5 -150t-271 -56q-144 0 -269.5 56.5t-211 150.5t-134 216.5t-48.5 254.5zM334 651q0 -90 13 -173.5t43.5 -162.5t76 -137 t115 -93.5t155.5 -35.5q107 0 188 53t127 141.5t68.5 191.5t22.5 216q0 89 -13 170t-44 156.5t-76.5 130.5t-115.5 88t-157 33q-106 0 -186.5 -49.5t-126.5 -133.5t-68 -183.5t-22 -211.5zM733 1401l129 299q13 33 45 60.5t66 27.5q29 0 50 -20.5t21 -49.5q0 -55 -53 -108 l-209 -209h-49z" />
<glyph unicode="&#xd4;" horiz-adv-x="1478" d="M74 651q0 131 48.5 249.5t134 207.5t211 142t269.5 53q145 0 270.5 -52.5t211.5 -141.5t135 -208t49 -250q0 -132 -49 -255t-134.5 -217t-211.5 -150t-271 -56q-144 0 -269.5 56.5t-211 150.5t-134 216.5t-48.5 254.5zM334 651q0 -90 13 -173.5t43.5 -162.5t76 -137 t115 -93.5t155.5 -35.5q107 0 188 53t127 141.5t68.5 191.5t22.5 216q0 89 -13 170t-44 156.5t-76.5 130.5t-115.5 88t-157 33q-106 0 -186.5 -49.5t-126.5 -133.5t-68 -183.5t-22 -211.5zM401 1401l308 358h61l307 -358h-69l-267 201h-4l-266 -201h-70z" />
<glyph unicode="&#xd5;" horiz-adv-x="1478" d="M74 651q0 131 48.5 249.5t134 207.5t211 142t269.5 53q145 0 270.5 -52.5t211.5 -141.5t135 -208t49 -250q0 -132 -49 -255t-134.5 -217t-211.5 -150t-271 -56q-144 0 -269.5 56.5t-211 150.5t-134 216.5t-48.5 254.5zM334 651q0 -90 13 -173.5t43.5 -162.5t76 -137 t115 -93.5t155.5 -35.5q107 0 188 53t127 141.5t68.5 191.5t22.5 216q0 89 -13 170t-44 156.5t-76.5 130.5t-115.5 88t-157 33q-106 0 -186.5 -49.5t-126.5 -133.5t-68 -183.5t-22 -211.5zM414 1401q0 35 10.5 74t31 77.5t59.5 64t89 25.5q32 0 62 -9.5t44 -17.5t42.5 -29.5 t35.5 -26.5q3 -2 15 -10.5t17 -11.5t16 -9.5t18.5 -9.5t18.5 -6.5t22.5 -5t24.5 -1.5q52 0 80 40t28 87h47q0 -117 -43.5 -183.5t-134.5 -66.5q-65 0 -180 74q-6 4 -32 21.5t-37.5 24.5t-33.5 14.5t-43 7.5q-55 0 -80.5 -37.5t-25.5 -85.5h-51z" />
<glyph unicode="&#xd6;" horiz-adv-x="1478" d="M74 651q0 131 48.5 249.5t134 207.5t211 142t269.5 53q145 0 270.5 -52.5t211.5 -141.5t135 -208t49 -250q0 -132 -49 -255t-134.5 -217t-211.5 -150t-271 -56q-144 0 -269.5 56.5t-211 150.5t-134 216.5t-48.5 254.5zM334 651q0 -90 13 -173.5t43.5 -162.5t76 -137 t115 -93.5t155.5 -35.5q107 0 188 53t127 141.5t68.5 191.5t22.5 216q0 89 -13 170t-44 156.5t-76.5 130.5t-115.5 88t-157 33q-106 0 -186.5 -49.5t-126.5 -133.5t-68 -183.5t-22 -211.5zM444 1505q0 44 30.5 74.5t76.5 30.5q43 0 73.5 -30.5t30.5 -74.5q0 -43 -30.5 -73.5 t-73.5 -30.5q-45 0 -76 30.5t-31 73.5zM831 1505q0 44 31 74.5t74 30.5q44 0 75 -30.5t31 -74.5q0 -43 -31 -73.5t-75 -30.5q-43 0 -74 30.5t-31 73.5z" />
<glyph unicode="&#xd7;" d="M100 109l365 389l-365 387l60 59l362 -385l363 385l59 -59l-364 -387l364 -389l-57 -58l-365 385l-364 -385z" />
<glyph unicode="&#xd8;" horiz-adv-x="1478" d="M74 651q0 131 48.5 249.5t134 207.5t211 142t269.5 53q190 0 340 -86l97 153h73l-117 -186q128 -90 200.5 -230.5t72.5 -302.5q0 -132 -49 -255t-134.5 -217t-211.5 -150t-271 -56q-165 0 -307 74l-123 -201h-74l144 234q-141 94 -222 246.5t-81 324.5zM334 651 q0 -284 117 -450l559 905q-102 123 -273 123q-106 0 -186.5 -49.5t-126.5 -133.5t-68 -183.5t-22 -211.5zM494 150q101 -101 243 -101q107 0 188 53t127 141.5t68.5 191.5t22.5 216q0 245 -94 400z" />
<glyph unicode="&#xd9;" horiz-adv-x="1437" d="M68 1210v60h546v-60l-120 -24q-29 -6 -37 -14.5t-8 -30.5v-666q0 -192 85 -296.5t232 -104.5q93 0 163.5 32t113 90t63 132.5t20.5 165.5v649q0 19 -8.5 27t-38.5 14l-129 26v60h424v-60l-90 -22q-30 -7 -38.5 -15.5t-8.5 -29.5v-649q0 -246 -132.5 -383.5t-367.5 -137.5 q-157 0 -273 53.5t-184.5 168t-68.5 280.5v668q0 21 -8.5 30t-36.5 15zM465 1718q0 29 21.5 49.5t50.5 20.5q34 0 65.5 -27.5t44.5 -60.5l129 -299h-49l-209 209q-53 53 -53 108z" />
<glyph unicode="&#xda;" horiz-adv-x="1437" d="M68 1210v60h546v-60l-120 -24q-29 -6 -37 -14.5t-8 -30.5v-666q0 -192 85 -296.5t232 -104.5q93 0 163.5 32t113 90t63 132.5t20.5 165.5v649q0 19 -8.5 27t-38.5 14l-129 26v60h424v-60l-90 -22q-30 -7 -38.5 -15.5t-8.5 -29.5v-649q0 -246 -132.5 -383.5t-367.5 -137.5 q-157 0 -273 53.5t-184.5 168t-68.5 280.5v668q0 21 -8.5 30t-36.5 15zM754 1401l129 299q13 33 44.5 60.5t65.5 27.5q29 0 50.5 -20.5t21.5 -49.5q0 -55 -53 -108l-209 -209h-49z" />
<glyph unicode="&#xdb;" horiz-adv-x="1437" d="M68 1210v60h546v-60l-120 -24q-29 -6 -37 -14.5t-8 -30.5v-666q0 -192 85 -296.5t232 -104.5q93 0 163.5 32t113 90t63 132.5t20.5 165.5v649q0 19 -8.5 27t-38.5 14l-129 26v60h424v-60l-90 -22q-30 -7 -38.5 -15.5t-8.5 -29.5v-649q0 -246 -132.5 -383.5t-367.5 -137.5 q-157 0 -273 53.5t-184.5 168t-68.5 280.5v668q0 21 -8.5 30t-36.5 15zM422 1401l307 358h62l307 -358h-70l-266 201h-4l-266 -201h-70z" />
<glyph unicode="&#xdc;" horiz-adv-x="1437" d="M68 1210v60h546v-60l-120 -24q-29 -6 -37 -14.5t-8 -30.5v-666q0 -192 85 -296.5t232 -104.5q93 0 163.5 32t113 90t63 132.5t20.5 165.5v649q0 19 -8.5 27t-38.5 14l-129 26v60h424v-60l-90 -22q-30 -7 -38.5 -15.5t-8.5 -29.5v-649q0 -246 -132.5 -383.5t-367.5 -137.5 q-157 0 -273 53.5t-184.5 168t-68.5 280.5v668q0 21 -8.5 30t-36.5 15zM479 1505q0 44 30.5 74.5t76.5 30.5q43 0 73.5 -30.5t30.5 -74.5q0 -43 -30.5 -73.5t-73.5 -30.5q-45 0 -76 30.5t-31 73.5zM866 1505q0 44 31 74.5t74 30.5q44 0 75 -30.5t31 -74.5q0 -43 -31 -73.5 t-75 -30.5q-43 0 -74 30.5t-31 73.5z" />
<glyph unicode="&#xdd;" horiz-adv-x="1236" d="M-2 1208v62h510v-62l-94 -22q-37 -8 -40 -16q-4 -8 7 -25l319 -492l285 486q13 27 3 36t-52 17l-90 18v60h395v-60l-59 -16q-27 -7 -42.5 -16.5t-29.5 -34.5l-362 -578v-436q0 -21 8.5 -27t44.5 -14l139 -29v-59h-621v59l138 29q33 6 44 14t11 27v397l-399 613 q-15 23 -25.5 32.5t-32.5 16.5zM612 1401l129 299q13 33 45 60.5t66 27.5q29 0 50.5 -20.5t21.5 -49.5q0 -54 -54 -108l-208 -209h-50z" />
<glyph unicode="&#xde;" horiz-adv-x="1189" d="M78 0v59l112 25q38 8 47 14t9 27v1018q0 21 -8.5 27t-44.5 14l-115 26v60h573v-60l-112 -26q-37 -8 -46.5 -14t-9.5 -27v-131h181q80 0 148.5 -9t133 -32t109 -59t71.5 -93t27 -131q0 -185 -125.5 -287t-333.5 -102q-117 0 -211 16v-190q0 -21 8.5 -27t45.5 -14l114 -25 v-59h-573zM483 371h78q357 0 357 311q0 137 -69 198.5t-226 61.5h-25q-65 0 -115 -16v-555z" />
<glyph unicode="&#xdf;" horiz-adv-x="1277" d="M63 846l35 92h109v55q0 109 42 197.5t113 143.5t159.5 84.5t185.5 29.5q164 0 274.5 -71t110.5 -193q0 -36 -13.5 -67t-42.5 -58.5t-52.5 -44.5t-65.5 -43q-38 -24 -60 -68t-22 -98q0 -64 19.5 -102.5t72.5 -71.5l135 -86q68 -42 117 -111.5t49 -159.5q0 -133 -93.5 -216 t-248.5 -83q-62 0 -132.5 16.5t-125.5 43.5l-25 262h51q30 -142 66 -186q76 -66 162 -66q71 0 111 47.5t40 122.5q0 70 -25 113t-81 78l-97 59q-42 26 -69 47t-57 52.5t-45 72t-15 88.5q0 53 24 98t51 69t71.5 57t62.5 50q76 70 76 181q0 94 -68.5 149t-169.5 55 q-120 0 -198 -87t-78 -246v-901q0 -46 43 -66l65 -31v-53h-454v49l69 19q7 2 15 4t12.5 3t10 2.5t8.5 2.5t6.5 2.5t5.5 3.5l4 4t2.5 5t1 6.5t0.5 7.5v737h-142z" />
<glyph unicode="&#xe0;" horiz-adv-x="1114" d="M-29 0v55l95 21q19 4 29 15t20 34l381 915h110l379 -917q17 -39 51 -47l76 -21v-55h-481v55l94 21q27 6 35 18t-2 37l-68 164h-395l-66 -170q-15 -41 29 -51l94 -19v-55h-381zM246 1491q0 29 21 49.5t50 20.5q34 0 66 -27.5t45 -60.5l129 -299h-49l-209 208 q-53 53 -53 109zM322 377h335l-172 428z" />
<glyph unicode="&#xe1;" horiz-adv-x="1114" d="M-29 0v55l95 21q19 4 29 15t20 34l381 915h110l379 -917q17 -39 51 -47l76 -21v-55h-481v55l94 21q27 6 35 18t-2 37l-68 164h-395l-66 -170q-15 -41 29 -51l94 -19v-55h-381zM322 377h335l-172 428zM535 1174l129 299q13 33 44.5 60.5t65.5 27.5q29 0 50.5 -20.5 t21.5 -49.5q0 -56 -53 -109l-209 -208h-49z" />
<glyph unicode="&#xe2;" horiz-adv-x="1114" d="M-29 0v55l95 21q19 4 29 15t20 34l381 915h110l379 -917q17 -39 51 -47l76 -21v-55h-481v55l94 21q27 6 35 18t-2 37l-68 164h-395l-66 -170q-15 -41 29 -51l94 -19v-55h-381zM203 1174l307 358h61l308 -358h-70l-266 200h-4l-267 -200h-69zM322 377h335l-172 428z" />
<glyph unicode="&#xe3;" horiz-adv-x="1114" d="M-29 0v55l95 21q19 4 29 15t20 34l381 915h110l379 -917q17 -39 51 -47l76 -21v-55h-481v55l94 21q27 6 35 18t-2 37l-68 164h-395l-66 -170q-15 -41 29 -51l94 -19v-55h-381zM215 1174q0 35 10.5 74t31.5 77.5t60 64t89 25.5q32 0 61.5 -9.5t44 -18t42.5 -29.5l36 -27 q3 -2 15.5 -10.5t16.5 -11t15.5 -9.5t18.5 -9.5t18.5 -6t22.5 -5t24 -1.5q52 0 80 40t28 87h48q0 -117 -44 -183.5t-135 -66.5q-65 0 -180 74q-6 4 -32 21.5t-37 24t-33 14t-43 7.5q-55 0 -81 -37.5t-26 -84.5h-51zM322 377h335l-172 428z" />
<glyph unicode="&#xe4;" horiz-adv-x="1114" d="M-29 0v55l95 21q19 4 29 15t20 34l381 915h110l379 -917q17 -39 51 -47l76 -21v-55h-481v55l94 21q27 6 35 18t-2 37l-68 164h-395l-66 -170q-15 -41 29 -51l94 -19v-55h-381zM246 1278q0 44 30 74t76 30q43 0 74 -30t31 -74q0 -43 -31 -73.5t-74 -30.5q-45 0 -75.5 30.5 t-30.5 73.5zM322 377h335l-172 428zM633 1278q0 44 30.5 74t73.5 30q45 0 76 -30t31 -74q0 -43 -31.5 -73.5t-75.5 -30.5q-43 0 -73.5 30.5t-30.5 73.5z" />
<glyph unicode="&#xe5;" horiz-adv-x="1114" d="M-29 0v55l95 21q19 4 29 15t20 34l381 915h110l379 -917q17 -39 51 -47l76 -21v-55h-481v55l94 21q27 6 35 18t-2 37l-68 164h-395l-66 -170q-15 -41 29 -51l94 -19v-55h-381zM322 377h335l-172 428zM356 1356q0 77 54 129.5t141 52.5q91 0 144 -52t53 -130t-53 -130 t-144 -52t-143 52t-52 130zM438 1356q0 -68 32 -105t81 -37q50 0 81.5 35.5t31.5 106.5q0 68 -31.5 103.5t-81.5 35.5q-52 0 -82.5 -35t-30.5 -104z" />
<glyph unicode="&#xe6;" horiz-adv-x="1583" d="M-27 0v55l76 17q28 6 42 16t28 33l559 895h90h494q86 0 147 18l31 -325h-51q-39 130 -89 188q-32 19 -105.5 34t-154.5 15h-14q-55 0 -117 -10v-371h193q36 21 64 65t34 85h39v-383h-39q-23 111 -98 157h-193v-409q9 -1 34.5 -4.5t50.5 -5.5t59 -2h41q60 0 130 13.5 t105 37.5q27 30 58 91.5t49 117.5h51l-51 -328h-901v55l104 23q38 8 46.5 14t8.5 27v176h-360l-94 -170q-9 -25 -4 -35.5t26 -15.5l94 -19v-55h-383zM383 377h311v502z" />
<glyph unicode="&#xe7;" horiz-adv-x="1216" d="M82 510q0 245 169.5 387.5t446.5 142.5q182 0 303 -51l33 43h39l17 -354h-60q-11 56 -36 119.5t-52 99.5q-87 80 -237 80q-98 0 -174.5 -38.5t-122 -104.5t-68.5 -145.5t-23 -168.5q0 -207 103 -339t260 -132q120 0 231 70q29 26 67 99t52 128h62l-62 -303 q-140 -57 -336 -63l-59 -76l100 -45q152 -67 152 -170q0 -86 -71 -136.5t-198 -50.5q-46 0 -91 14t-70 33v43q56 -38 131 -38q172 0 172 112q0 17 -6.5 32.5t-14 25t-26 21.5t-28 17t-37 18t-36.5 17q-16 8 -26 14.5t-20.5 17.5t-9 25t14.5 31l72 95q-139 4 -247 46.5 t-176 114t-103 165t-35 204.5z" />
<glyph unicode="&#xe8;" horiz-adv-x="1128" d="M80 0v55l104 23q38 8 47 14t9 27v776q0 20 -9 26.5t-45 14.5l-106 25v55h727q86 0 147 18l31 -325h-51q-40 132 -88 188q-32 19 -105.5 34t-154.5 15h-15q-54 0 -116 -10v-371h192q36 21 64 65t34 85h39v-383h-39q-23 111 -98 157h-192v-409q9 -1 34 -4.5t50 -5.5t59 -2 h41q60 0 130 13.5t105 37.5q27 30 58 91.5t49 117.5h51l-51 -328h-901zM272 1491q0 29 21.5 49.5t50.5 20.5q34 0 66 -27.5t45 -60.5l129 -299h-49l-209 208q-54 54 -54 109z" />
<glyph unicode="&#xe9;" horiz-adv-x="1128" d="M80 0v55l104 23q38 8 47 14t9 27v776q0 20 -9 26.5t-45 14.5l-106 25v55h727q86 0 147 18l31 -325h-51q-40 132 -88 188q-32 19 -105.5 34t-154.5 15h-15q-54 0 -116 -10v-371h192q36 21 64 65t34 85h39v-383h-39q-23 111 -98 157h-192v-409q9 -1 34 -4.5t50 -5.5t59 -2 h41q60 0 130 13.5t105 37.5q27 30 58 91.5t49 117.5h51l-51 -328h-901zM541 1174l129 299q13 33 44.5 60.5t65.5 27.5q29 0 50.5 -20.5t21.5 -49.5q0 -56 -53 -109l-209 -208h-49z" />
<glyph unicode="&#xea;" horiz-adv-x="1128" d="M80 0v55l104 23q38 8 47 14t9 27v776q0 20 -9 26.5t-45 14.5l-106 25v55h727q86 0 147 18l31 -325h-51q-40 132 -88 188q-32 19 -105.5 34t-154.5 15h-15q-54 0 -116 -10v-371h192q36 21 64 65t34 85h39v-383h-39q-23 111 -98 157h-192v-409q9 -1 34 -4.5t50 -5.5t59 -2 h41q60 0 130 13.5t105 37.5q27 30 58 91.5t49 117.5h51l-51 -328h-901zM229 1174l308 358h61l307 -358h-69l-267 200h-4l-266 -200h-70z" />
<glyph unicode="&#xeb;" horiz-adv-x="1128" d="M80 0v55l104 23q38 8 47 14t9 27v776q0 20 -9 26.5t-45 14.5l-106 25v55h727q86 0 147 18l31 -325h-51q-40 132 -88 188q-32 19 -105.5 34t-154.5 15h-15q-54 0 -116 -10v-371h192q36 21 64 65t34 85h39v-383h-39q-23 111 -98 157h-192v-409q9 -1 34 -4.5t50 -5.5t59 -2 h41q60 0 130 13.5t105 37.5q27 30 58 91.5t49 117.5h51l-51 -328h-901zM272 1278q0 44 30.5 74t76.5 30q43 0 73.5 -30t30.5 -74q0 -43 -30.5 -73.5t-73.5 -30.5q-45 0 -76 30.5t-31 73.5zM659 1278q0 44 31 74t74 30q44 0 75 -30t31 -74q0 -43 -31 -73.5t-75 -30.5 q-43 0 -74 30.5t-31 73.5z" />
<glyph unicode="&#xec;" horiz-adv-x="684" d="M51 1491q0 29 21.5 49.5t50.5 20.5q34 0 65.5 -27.5t44.5 -60.5l129 -299h-49l-209 208q-53 53 -53 109zM80 0v55l104 23q38 8 47 14t9 27v776q0 20 -9 26.5t-45 14.5l-106 25v55h524v-55l-94 -25q-21 -5 -29 -7.5t-15.5 -7t-9 -10t-1.5 -16.5v-776q0 -21 8.5 -27 t44.5 -14l96 -23v-55h-524z" />
<glyph unicode="&#xed;" horiz-adv-x="684" d="M80 0v55l104 23q38 8 47 14t9 27v776q0 20 -9 26.5t-45 14.5l-106 25v55h524v-55l-94 -25q-21 -5 -29 -7.5t-15.5 -7t-9 -10t-1.5 -16.5v-776q0 -21 8.5 -27t44.5 -14l96 -23v-55h-524zM319 1174l130 299q13 33 44.5 60.5t65.5 27.5q29 0 50.5 -20.5t21.5 -49.5 q0 -56 -53 -109l-209 -208h-50z" />
<glyph unicode="&#xee;" horiz-adv-x="684" d="M4 1174l307 358h62l307 -358h-70l-266 200h-4l-266 -200h-70zM80 0v55l104 23q38 8 47 14t9 27v776q0 20 -9 26.5t-45 14.5l-106 25v55h524v-55l-94 -25q-21 -5 -29 -7.5t-15.5 -7t-9 -10t-1.5 -16.5v-776q0 -21 8.5 -27t44.5 -14l96 -23v-55h-524z" />
<glyph unicode="&#xef;" horiz-adv-x="684" d="M35 1278q0 44 30 74t76 30q43 0 74 -30t31 -74q0 -43 -31 -73.5t-74 -30.5q-45 0 -75.5 30.5t-30.5 73.5zM80 0v55l104 23q38 8 47 14t9 27v776q0 20 -9 26.5t-45 14.5l-106 25v55h524v-55l-94 -25q-21 -5 -29 -7.5t-15.5 -7t-9 -10t-1.5 -16.5v-776q0 -21 8.5 -27 t44.5 -14l96 -23v-55h-524zM422 1278q0 44 30.5 74t73.5 30q45 0 76 -30t31 -74q0 -43 -31.5 -73.5t-75.5 -30.5q-43 0 -73.5 30.5t-30.5 73.5z" />
<glyph unicode="&#xf0;" horiz-adv-x="1331" d="M80 0v55l104 23q38 8 47 14t9 27v344h-160v98h160v334q0 20 -9 26.5t-45 14.5l-106 25v55h563q125 0 235.5 -33t195 -94.5t134 -156t49.5 -210.5q0 -109 -41 -204.5t-114.5 -166t-181 -111t-234.5 -40.5h-606zM455 82q59 -19 133 -19h39q182 0 291.5 121t109.5 332 q0 72 -12.5 134t-44 119t-79 97t-122.5 64t-170 24h-39q-61 0 -106 -20v-373h172v-98h-172v-381z" />
<glyph unicode="&#xf1;" horiz-adv-x="1363" d="M63 0v55l113 21q18 3 25 11t10 28q12 123 12 209v565q0 24 -9.5 31t-49.5 16l-90 22v58h334l639 -717v440q0 53 -9 150q-4 43 -34 47l-158 25v55h459v-55l-113 -21q-19 -3 -28 -12.5t-9 -32.5q-10 -103 -10 -150v-765h-96l-727 823v-477q0 -90 12 -207q3 -19 11 -27.5 t26 -11.5l155 -25v-55h-463zM340 1174q0 35 10.5 74t31 77.5t59.5 64t89 25.5q32 0 62 -9.5t44.5 -18t43 -30t35.5 -26.5q3 -2 15.5 -10.5t16.5 -11t15.5 -9.5t18.5 -9.5t18.5 -6t22.5 -5t24 -1.5q52 0 80 40t28 87h47q0 -117 -43.5 -183.5t-134.5 -66.5q-65 0 -180 74 q-6 4 -32 21.5t-37 24t-33 14t-43 7.5q-55 0 -81 -37.5t-26 -84.5h-51z" />
<glyph unicode="&#xf2;" horiz-adv-x="1320" d="M74 520q0 146 73 264t207 187t305 69q260 0 422 -148.5t162 -371.5q0 -109 -42.5 -207.5t-117 -172t-185 -117t-239.5 -43.5q-127 0 -237.5 43.5t-186 116.5t-118.5 172t-43 208zM311 520q0 -69 11.5 -134t38 -126.5t66 -107.5t99 -73.5t133.5 -27.5q91 0 161 41 t109.5 110t59 149t19.5 169q0 69 -11.5 132t-38 121.5t-66 101.5t-99.5 68.5t-134 25.5q-91 0 -160.5 -38.5t-109 -104t-59 -142.5t-19.5 -164zM369 1491q0 29 21 49.5t50 20.5q34 0 66 -27.5t45 -60.5l129 -299h-49l-209 208q-53 53 -53 109z" />
<glyph unicode="&#xf3;" horiz-adv-x="1320" d="M74 520q0 146 73 264t207 187t305 69q260 0 422 -148.5t162 -371.5q0 -109 -42.5 -207.5t-117 -172t-185 -117t-239.5 -43.5q-127 0 -237.5 43.5t-186 116.5t-118.5 172t-43 208zM311 520q0 -69 11.5 -134t38 -126.5t66 -107.5t99 -73.5t133.5 -27.5q91 0 161 41 t109.5 110t59 149t19.5 169q0 69 -11.5 132t-38 121.5t-66 101.5t-99.5 68.5t-134 25.5q-91 0 -160.5 -38.5t-109 -104t-59 -142.5t-19.5 -164zM637 1174l129 299q13 33 45 60.5t66 27.5q29 0 50 -20.5t21 -49.5q0 -56 -53 -109l-209 -208h-49z" />
<glyph unicode="&#xf4;" horiz-adv-x="1320" d="M74 520q0 146 73 264t207 187t305 69q260 0 422 -148.5t162 -371.5q0 -109 -42.5 -207.5t-117 -172t-185 -117t-239.5 -43.5q-127 0 -237.5 43.5t-186 116.5t-118.5 172t-43 208zM305 1174l307 358h62l307 -358h-70l-266 200h-4l-266 -200h-70zM311 520q0 -69 11.5 -134 t38 -126.5t66 -107.5t99 -73.5t133.5 -27.5q91 0 161 41t109.5 110t59 149t19.5 169q0 69 -11.5 132t-38 121.5t-66 101.5t-99.5 68.5t-134 25.5q-91 0 -160.5 -38.5t-109 -104t-59 -142.5t-19.5 -164z" />
<glyph unicode="&#xf5;" horiz-adv-x="1320" d="M74 520q0 146 73 264t207 187t305 69q260 0 422 -148.5t162 -371.5q0 -109 -42.5 -207.5t-117 -172t-185 -117t-239.5 -43.5q-127 0 -237.5 43.5t-186 116.5t-118.5 172t-43 208zM311 520q0 -69 11.5 -134t38 -126.5t66 -107.5t99 -73.5t133.5 -27.5q91 0 161 41 t109.5 110t59 149t19.5 169q0 69 -11.5 132t-38 121.5t-66 101.5t-99.5 68.5t-134 25.5q-91 0 -160.5 -38.5t-109 -104t-59 -142.5t-19.5 -164zM317 1174q0 35 10.5 74t31.5 77.5t60 64t89 25.5q32 0 61.5 -9.5t44 -18t42.5 -29.5l36 -27q3 -2 15.5 -10.5t16.5 -11 t15.5 -9.5t18.5 -9.5t18.5 -6t22.5 -5t24 -1.5q52 0 80.5 40t28.5 87h47q0 -117 -43.5 -183.5t-134.5 -66.5q-65 0 -180 74q-5 3 -32 21.5t-37.5 24.5t-33 13.5t-43.5 7.5q-55 0 -80.5 -37t-25.5 -85h-52z" />
<glyph unicode="&#xf6;" horiz-adv-x="1320" d="M74 520q0 146 73 264t207 187t305 69q260 0 422 -148.5t162 -371.5q0 -109 -42.5 -207.5t-117 -172t-185 -117t-239.5 -43.5q-127 0 -237.5 43.5t-186 116.5t-118.5 172t-43 208zM311 520q0 -69 11.5 -134t38 -126.5t66 -107.5t99 -73.5t133.5 -27.5q91 0 161 41 t109.5 110t59 149t19.5 169q0 69 -11.5 132t-38 121.5t-66 101.5t-99.5 68.5t-134 25.5q-91 0 -160.5 -38.5t-109 -104t-59 -142.5t-19.5 -164zM348 1278q0 44 30.5 74t76.5 30q43 0 73.5 -30t30.5 -74q0 -43 -30.5 -73.5t-73.5 -30.5q-45 0 -76 30.5t-31 73.5zM735 1278 q0 44 31 74t74 30q44 0 75 -30t31 -74q0 -43 -31 -73.5t-75 -30.5q-43 0 -74 30.5t-31 73.5z" />
<glyph unicode="&#xf7;" d="M72 449v98h934v-98h-934zM422 129q0 51 36 85t87 34t86 -34t35 -85q0 -46 -35 -79.5t-86 -33.5q-52 0 -87.5 33t-35.5 80zM422 860q0 46 36 79.5t87 33.5t86 -33.5t35 -79.5q0 -50 -35 -84.5t-86 -34.5q-53 0 -88 33.5t-35 85.5z" />
<glyph unicode="&#xf8;" horiz-adv-x="1320" d="M74 520q0 146 73 264t207 187t305 69q173 0 312 -71l84 118h78l-109 -151q104 -71 161.5 -179.5t57.5 -236.5q0 -109 -42.5 -207.5t-117 -172t-185 -117t-239.5 -43.5q-148 0 -276 59l-139 -193h-74l158 224q-120 74 -187 192.5t-67 257.5zM311 520q0 -210 95 -342 l493 690q-91 101 -240 101q-91 0 -160.5 -38.5t-109 -104t-59 -142.5t-19.5 -164zM449 131q87 -80 210 -80q91 0 161 41t109.5 110t59 149t19.5 169q0 175 -70 295z" />
<glyph unicode="&#xf9;" horiz-adv-x="1314" d="M68 961v55h514v-55l-111 -25q-30 -6 -39.5 -13.5t-9.5 -27.5v-506q0 -150 75 -234.5t203 -84.5q159 0 236.5 93.5t77.5 239.5v494q0 20 -8 26.5t-39 12.5l-119 25v55h403v-55l-82 -23q-32 -9 -39.5 -15t-7.5 -26v-502q0 -195 -118.5 -305t-325.5 -110q-213 0 -342 102 t-129 299v514q0 20 -7 27t-36 14zM408 1491q0 29 21 49.5t50 20.5q34 0 66 -27.5t45 -60.5l129 -299h-49l-209 208q-53 53 -53 109z" />
<glyph unicode="&#xfa;" horiz-adv-x="1314" d="M68 961v55h514v-55l-111 -25q-30 -6 -39.5 -13.5t-9.5 -27.5v-506q0 -150 75 -234.5t203 -84.5q159 0 236.5 93.5t77.5 239.5v494q0 20 -8 26.5t-39 12.5l-119 25v55h403v-55l-82 -23q-32 -9 -39.5 -15t-7.5 -26v-502q0 -195 -118.5 -305t-325.5 -110q-213 0 -342 102 t-129 299v514q0 20 -7 27t-36 14zM696 1174l129 299q13 33 45 60.5t66 27.5q29 0 50.5 -20.5t21.5 -49.5q0 -55 -54 -109l-209 -208h-49z" />
<glyph unicode="&#xfb;" horiz-adv-x="1314" d="M68 961v55h514v-55l-111 -25q-30 -6 -39.5 -13.5t-9.5 -27.5v-506q0 -150 75 -234.5t203 -84.5q159 0 236.5 93.5t77.5 239.5v494q0 20 -8 26.5t-39 12.5l-119 25v55h403v-55l-82 -23q-32 -9 -39.5 -15t-7.5 -26v-502q0 -195 -118.5 -305t-325.5 -110q-213 0 -342 102 t-129 299v514q0 20 -7 27t-36 14zM365 1174l307 358h61l307 -358h-69l-266 200h-5l-266 -200h-69z" />
<glyph unicode="&#xfc;" horiz-adv-x="1314" d="M68 961v55h514v-55l-111 -25q-30 -6 -39.5 -13.5t-9.5 -27.5v-506q0 -150 75 -234.5t203 -84.5q159 0 236.5 93.5t77.5 239.5v494q0 20 -8 26.5t-39 12.5l-119 25v55h403v-55l-82 -23q-32 -9 -39.5 -15t-7.5 -26v-502q0 -195 -118.5 -305t-325.5 -110q-213 0 -342 102 t-129 299v514q0 20 -7 27t-36 14zM408 1278q0 44 30 74t76 30q43 0 73.5 -30t30.5 -74q0 -43 -30.5 -73.5t-73.5 -30.5q-45 0 -75.5 30.5t-30.5 73.5zM795 1278q0 44 30.5 74t73.5 30q45 0 76 -30t31 -74q0 -43 -31.5 -73.5t-75.5 -30.5q-43 0 -73.5 30.5t-30.5 73.5z" />
<glyph unicode="&#xfd;" horiz-adv-x="1110" d="M-2 954v62h471v-62l-74 -18q-24 -6 -32 -10t-8 -13t12 -26l251 -355l236 359q9 13 10.5 21t-7.5 13.5t-19 8t-35 8.5l-68 14v60h379v-60l-63 -14q-27 -6 -43.5 -18t-34.5 -37l-303 -434v-326q0 -21 8.5 -27t44.5 -14l143 -31v-55h-608v55l141 31q38 8 47 14t9 27v295 l-334 467q-25 36 -60 49zM553 1174l129 299q13 33 45 60.5t66 27.5q29 0 50 -20.5t21 -49.5q0 -56 -53 -109l-209 -208h-49z" />
<glyph unicode="&#xfe;" horiz-adv-x="1085" d="M80 0v55l106 23q37 8 45.5 14t8.5 27v776q0 20 -9 26.5t-45 14.5l-106 25v55h534v-55l-104 -25q-36 -8 -45.5 -14.5t-9.5 -26.5v-74h159q123 0 218 -28t155 -91.5t60 -156.5q0 -149 -105.5 -240.5t-298.5 -91.5q-95 0 -188 14v-108q0 -21 7.5 -27t39.5 -12l135 -25v-55 h-557zM455 279h63q164 0 240 63t76 197q0 107 -63.5 162t-201.5 55h-24q-32 0 -90 -15v-462z" />
<glyph unicode="&#xff;" horiz-adv-x="1110" d="M-2 954v62h471v-62l-74 -18q-24 -6 -32 -10t-8 -13t12 -26l251 -355l236 359q9 13 10.5 21t-7.5 13.5t-19 8t-35 8.5l-68 14v60h379v-60l-63 -14q-27 -6 -43.5 -18t-34.5 -37l-303 -434v-326q0 -21 8.5 -27t44.5 -14l143 -31v-55h-608v55l141 31q38 8 47 14t9 27v295 l-334 467q-25 36 -60 49zM291 1278q0 44 30 74t76 30q43 0 74 -30t31 -74q0 -43 -31 -73.5t-74 -30.5q-45 0 -75.5 30.5t-30.5 73.5zM678 1278q0 44 30.5 74t73.5 30q45 0 76 -30t31 -74q0 -43 -31.5 -73.5t-75.5 -30.5q-43 0 -73.5 30.5t-30.5 73.5z" />
<glyph unicode="&#x152;" horiz-adv-x="2125" d="M72 651q0 131 48.5 249.5t134.5 207.5t211.5 142t270.5 53q258 0 430 -187v154h621q96 0 164 22l37 -407h-56q-48 180 -102 250q-37 24 -119 42.5t-174 18.5h-18q-76 0 -140 -12v-482h226q41 25 74.5 83t41.5 108h41v-469h-41q-29 137 -116 197h-226v-535 q105 -14 170 -14h47q68 0 146.5 16.5t118.5 46.5q32 36 67.5 113.5t57.5 150.5h55l-60 -399h-815v170q-79 -92 -189 -144.5t-241 -52.5q-144 0 -270 56.5t-211.5 150.5t-134.5 217t-49 254zM332 651q0 -113 22.5 -216t68 -191.5t126.5 -141.5t188 -53q103 0 183.5 53 t127 141.5t70.5 192t25 215.5q0 111 -24 211.5t-71 184t-127.5 133t-183.5 49.5q-86 0 -155.5 -33t-115.5 -88t-76.5 -130.5t-44 -156.5t-13.5 -170z" />
<glyph unicode="&#x153;" horiz-adv-x="1896" d="M74 520q0 146 73 264t207 187t305 69q199 0 349 -94v70h567q86 0 147 18l31 -325h-51q-40 132 -88 188q-32 19 -105.5 34t-154.5 15h-15q-54 0 -116 -10v-371h192q36 21 64 65t34 85h39v-383h-39q-23 111 -98 157h-192v-409q9 -1 34 -4.5t50 -5.5t59 -2h41q60 0 130 13.5 t105 37.5q27 30 58 91.5t49 117.5h51l-51 -328h-741v80q-149 -100 -349 -100q-127 0 -237.5 43.5t-186 116.5t-118.5 172t-43 208zM311 520q0 -69 11.5 -134t38 -126.5t66 -107.5t99 -73.5t133.5 -27.5q91 0 161 41t109.5 110t59 149t19.5 169q0 69 -11.5 132t-38 121.5 t-66 101.5t-99.5 68.5t-134 25.5q-91 0 -160.5 -38.5t-109 -104t-59 -142.5t-19.5 -164z" />
<glyph unicode="&#x178;" horiz-adv-x="1236" d="M-2 1208v62h510v-62l-94 -22q-37 -8 -40 -16q-4 -8 7 -25l319 -492l285 486q13 27 3 36t-52 17l-90 18v60h395v-60l-59 -16q-27 -7 -42.5 -16.5t-29.5 -34.5l-362 -578v-436q0 -21 8.5 -27t44.5 -14l139 -29v-59h-621v59l138 29q33 6 44 14t11 27v397l-399 613 q-15 23 -25.5 32.5t-32.5 16.5zM344 1505q0 44 30.5 74.5t76.5 30.5q43 0 73.5 -30.5t30.5 -74.5q0 -43 -30.5 -73.5t-73.5 -30.5q-45 0 -76 30.5t-31 73.5zM731 1505q0 44 31 74.5t74 30.5q44 0 75 -30.5t31 -74.5q0 -43 -31 -73.5t-75 -30.5q-43 0 -74 30.5t-31 73.5z" />
<glyph unicode="&#x2c6;" horiz-adv-x="1320" d="M305 1174l307 358h62l307 -358h-70l-266 200h-4l-266 -200h-70z" />
<glyph unicode="&#x2dc;" horiz-adv-x="1320" d="M317 1174q0 35 10.5 74t31.5 77.5t60 64t89 25.5q32 0 61.5 -9.5t44 -18t42.5 -29.5l36 -27q3 -2 15.5 -10.5t16.5 -11t15.5 -9.5t18.5 -9.5t18.5 -6t22.5 -5t24 -1.5q52 0 80.5 40t28.5 87h47q0 -117 -43.5 -183.5t-134.5 -66.5q-65 0 -180 74q-5 3 -32 21.5t-37.5 24.5 t-33 13.5t-43.5 7.5q-55 0 -80.5 -37t-25.5 -85h-52z" />
<glyph unicode="&#x2000;" horiz-adv-x="894" />
<glyph unicode="&#x2001;" horiz-adv-x="1788" />
<glyph unicode="&#x2002;" horiz-adv-x="894" />
<glyph unicode="&#x2003;" horiz-adv-x="1788" />
<glyph unicode="&#x2004;" horiz-adv-x="596" />
<glyph unicode="&#x2005;" horiz-adv-x="447" />
<glyph unicode="&#x2006;" horiz-adv-x="298" />
<glyph unicode="&#x2007;" horiz-adv-x="298" />
<glyph unicode="&#x2008;" horiz-adv-x="223" />
<glyph unicode="&#x2009;" horiz-adv-x="357" />
<glyph unicode="&#x200a;" horiz-adv-x="99" />
<glyph unicode="&#x2010;" horiz-adv-x="581" d="M57 518v144h467v-144h-467z" />
<glyph unicode="&#x2011;" horiz-adv-x="581" d="M57 518v144h467v-144h-467z" />
<glyph unicode="&#x2012;" horiz-adv-x="581" d="M57 518v144h467v-144h-467z" />
<glyph unicode="&#x2013;" horiz-adv-x="999" d="M57 559v103h883v-103h-883z" />
<glyph unicode="&#x2014;" horiz-adv-x="2000" d="M57 559v103h1889v-103h-1889z" />
<glyph unicode="&#x2018;" horiz-adv-x="542" d="M137 715q0 48 11.5 92t26.5 74t39 60.5t39.5 45t37.5 33t24 20.5h101q-67 -58 -104.5 -109t-37.5 -112q52 0 89.5 -37.5t37.5 -89.5q0 -55 -38 -93t-91 -38q-55 0 -95 36.5t-40 117.5z" />
<glyph unicode="&#x2019;" horiz-adv-x="542" d="M131 561q64 55 101.5 107.5t37.5 113.5q-52 0 -89.5 37t-37.5 90q0 55 38.5 93t92.5 38q55 0 94.5 -36t39.5 -119q0 -47 -11.5 -91t-27.5 -74t-39 -59.5t-39.5 -45t-37 -33t-24.5 -21.5h-98z" />
<glyph unicode="&#x201a;" horiz-adv-x="542" d="M131 -289q55 49 97 124t42 138q-52 0 -89.5 38t-37.5 91q0 55 38.5 93t92.5 38q55 0 94.5 -36t39.5 -119q0 -56 -17 -112.5t-34.5 -91.5t-51.5 -78t-43 -52l-33 -33h-98z" />
<glyph unicode="&#x201c;" horiz-adv-x="915" d="M129 715q0 48 11.5 92t26.5 74t39 60.5t39.5 45t37.5 33t24 20.5h99q-43 -38 -68.5 -65.5t-48.5 -70.5t-23 -85q52 0 89.5 -37.5t37.5 -89.5q0 -55 -38.5 -93t-92.5 -38t-93.5 36.5t-39.5 117.5zM504 715q0 48 11.5 92t26.5 74t39 60.5t39.5 45t37.5 33t24 20.5h98 q-31 -29 -50.5 -49t-42 -49.5t-33.5 -60t-11 -62.5q53 0 90 -37.5t37 -89.5q0 -55 -39 -93t-92 -38q-55 0 -95 36.5t-40 117.5z" />
<glyph unicode="&#x201d;" horiz-adv-x="915" d="M141 561q64 57 101 109.5t37 111.5q-51 0 -88 37.5t-37 91.5t38 91.5t91 37.5q56 0 95.5 -35t39.5 -118q0 -57 -14 -106.5t-40 -87t-46 -60t-48 -46.5t-30 -26h-99zM516 561q65 58 102 110t37 111q-53 0 -90 37.5t-37 91.5t38.5 91.5t92.5 37.5q55 0 94.5 -35.5 t39.5 -117.5q0 -57 -14.5 -107t-39.5 -86.5t-46 -60t-47.5 -46.5t-29.5 -26h-100z" />
<glyph unicode="&#x201e;" horiz-adv-x="915" d="M131 -285q56 49 97.5 123.5t41.5 138.5q-52 0 -88.5 37t-36.5 92q0 54 38 92t91 38q55 0 95.5 -36t40.5 -118q0 -199 -179 -367h-100zM508 -285q55 50 97 124t42 138q-53 0 -90 37t-37 92q0 54 38 92t91 38q55 0 95 -36t40 -118q0 -191 -176 -367h-100z" />
<glyph unicode="&#x2022;" horiz-adv-x="804" d="M164 647q0 100 69.5 170t169.5 70q98 0 168 -70t70 -170q0 -98 -70 -167.5t-168 -69.5q-100 0 -169.5 69.5t-69.5 167.5z" />
<glyph unicode="&#x2026;" horiz-adv-x="1665" d="M143 104q0 54 38 91.5t95 37.5q55 0 92.5 -37.5t37.5 -91.5t-37.5 -92.5t-92.5 -38.5q-56 0 -94.5 38.5t-38.5 92.5zM702 104q0 54 38.5 91.5t93.5 37.5q56 0 93.5 -37.5t37.5 -91.5q0 -55 -37.5 -93t-93.5 -38q-55 0 -93.5 38.5t-38.5 92.5zM1260 104q0 54 38.5 91.5 t94.5 37.5q55 0 93 -37.5t38 -91.5t-38 -92.5t-93 -38.5t-94 38.5t-39 92.5z" />
<glyph unicode="&#x202f;" horiz-adv-x="357" />
<glyph unicode="&#x2039;" horiz-adv-x="440" d="M20 535v53l338 325v-67l-176 -283v-4l176 -283v-67z" />
<glyph unicode="&#x203a;" horiz-adv-x="440" d="M82 209v67l176 283v4l-176 283v67l338 -325v-53z" />
<glyph unicode="&#x205f;" horiz-adv-x="447" />
<glyph unicode="&#x20ac;" d="M-2 371l43 84h113q-2 16 -2 51q0 42 8 86h-115l43 86h88q51 167 178.5 264.5t313.5 97.5q140 0 224.5 -75.5t88.5 -204.5h-63q-25 217 -246 217q-127 0 -187.5 -74.5t-85.5 -224.5h381l-47 -86h-340q-6 -44 -6 -76q0 -41 2 -61h295l-45 -84h-244q33 -322 264 -322 q113 0 177 48t86 149h67q-1 -21 -9 -50t-31.5 -69t-59 -72t-97 -55t-139.5 -23q-111 0 -197.5 29t-144.5 83t-94 124t-53 158h-166z" />
<glyph unicode="&#x2122;" horiz-adv-x="2179" d="M104 1049l11 237q21 -6 51 -12q40 -4 67 -4h512q73 0 105 14l10 -235h-41q-18 78 -61 139q-54 31 -144 31h-57v-603q0 -12 4.5 -14.5t28.5 -7.5l86 -16v-46h-387v46l84 16q1 0 4 1q28 5 30 12l1 9v603h-46q-101 0 -157 -29q-42 -55 -62 -141h-39zM956 532v46l88 12 q23 3 27 33q6 75 6 114v447q0 16 -12 20q-5 2 -27 6l-67 15v47h246l280 -539l289 537h239v-43l-71 -17q-21 -5 -26 -8.5t-5 -15.5v-570q0 -12 5.5 -15.5t27.5 -8.5l72 -14v-46h-353v46l62 14q23 5 29 8.5t6 15.5v510l-316 -591h-8l-305 577v-373q0 -39 6 -114q0 -31 22 -33 l93 -14v-46h-308z" />
<glyph unicode="&#xe000;" horiz-adv-x="1013" d="M0 0v1014h1014v-1014h-1014z" />
<glyph unicode="&#xfb01;" horiz-adv-x="1232" d="M63 846l35 92h109v27q0 211 136 346t355 135q82 0 154 -21.5t120 -67t48 -106.5q0 -53 -34 -82.5t-81 -29.5q-34 0 -67 24.5t-44.5 70.5t29.5 112q-12 14 -45 27t-69 13q-142 0 -217.5 -103t-75.5 -277v-68h340l229 47h62v-876q0 -5 0.5 -8l1 -6t2 -5t2.5 -4t5 -3.5 t6 -2.5t8 -2.5l10 -2.5t13 -3t15 -4l70 -19v-49h-480v49l70 19q7 2 16 4t13 3l10 2.5t9 2.5t6.5 2.5t5 3.5l3 4t2 5l1 6t0.5 8v675q0 36 -8.5 49t-34.5 13h-377v-723q0 -21 11 -28.5t52 -16.5l115 -29v-49h-524v49l69 19q53 13 60 20q6 7 6 21v737h-142z" />
<glyph unicode="&#xfb02;" horiz-adv-x="1210" d="M63 846l35 92h109v39q0 100 27 181.5t72 134.5t105.5 88.5t124.5 51t132 15.5q99 0 172 -39l137 39h61q-16 -115 -16 -297v-1042q0 -5 0.5 -8.5t1.5 -6.5t2 -5t4.5 -4.5t6 -3.5t8.5 -2.5t10.5 -3t13.5 -3.5t16 -4l70 -19v-49h-471v49l64 19q9 3 21 6t17 4t11.5 3.5t8 4 t4 5t3 7.5t0.5 11v1065q0 95 -45 150.5t-117 55.5q-106 0 -170.5 -87.5t-64.5 -233.5v-121h215v-92h-215v-723q0 -21 11 -28.5t52 -16.5l115 -29v-49h-524v49l69 19q53 13 60 20q6 7 6 21v737h-142z" />
</font>
</defs>
</svg>
